<svg id="auditorio-morelos-svg" xmlns="http://www.w3.org/2000/svg" xml:space="preserve" version="1.1" style="shape-rendering:geometricPrecision; text-rendering:geometricPrecision; image-rendering:optimizeQuality; fill-rule:evenodd; clip-rule:evenodd" viewBox="0 0 25289 20315" xmlns:xlink="http://www.w3.org/1999/xlink">
			<g>
				<rect id="delimitador" class="fil0" width="25289" height="20315"/>
				<g id="tabla-colores">
					<g>
						<rect class="fil1" x="639" y="752" width="1039" height="1039"/>
						<polygon class="fil2" points="2265,1289 2084,1289 2059,1456 2268,1456 2264,1484 2022,1484 2082,1081 2323,1081 2319,1109 2111,1109 2089,1261 2269,1261 "/>
						<path id="1" class="fil2" d="M2518 1407c2,-15 -2,-27 -12,-37 -10,-10 -30,-19 -59,-25 -34,-7 -59,-17 -75,-30 -15,-13 -22,-31 -18,-54 3,-24 16,-43 37,-59 21,-15 48,-23 80,-23 32,0 57,9 75,26 18,17 25,38 21,62l0 2 -31 0c2,-17 -2,-31 -15,-43 -12,-12 -30,-18 -54,-18 -23,0 -42,5 -56,16 -14,11 -22,23 -24,37 -2,14 2,26 11,34 9,9 29,16 59,23 34,8 59,19 75,32 16,14 23,32 19,56 -4,26 -17,46 -39,61 -22,15 -50,23 -83,23 -35,0 -62,-9 -81,-26 -19,-17 -26,-38 -22,-62l0 -2 30 0c-2,22 5,37 20,47 15,10 34,15 56,15 23,0 42,-5 58,-16 16,-11 25,-24 27,-38z"/>
						<path id="2" class="fil2" d="M2728 1462c20,0 40,-6 58,-19 19,-13 30,-30 33,-52l29 0 1 2c-4,29 -18,52 -43,70 -25,18 -53,27 -83,27 -38,0 -67,-14 -86,-42 -19,-28 -25,-64 -18,-107l2 -12c7,-45 23,-81 49,-108 26,-27 59,-41 99,-41 31,0 56,10 75,29 19,20 26,45 20,76l-1 1 -30 0c4,-25 -1,-44 -15,-58 -13,-14 -32,-21 -55,-21 -30,0 -55,12 -74,35 -19,23 -32,52 -37,86l-2 12c-6,36 -2,66 9,88 12,22 34,34 66,34z"/>
						<path id="3" class="fil2" d="M3020 1490c-37,0 -66,-14 -87,-42 -21,-28 -28,-63 -22,-105l3 -15c6,-45 24,-81 52,-108 28,-27 61,-41 98,-41 35,0 61,12 78,35 17,24 22,55 17,94l-4 26 -208 0 -1 9c-5,35 -1,64 13,86 14,22 36,33 67,33 17,0 35,-3 51,-9 17,-6 31,-14 42,-24l11 23c-12,11 -27,20 -46,28 -18,7 -39,11 -63,11zm39 -283c-24,0 -46,9 -66,28 -20,19 -33,42 -40,69l1 2 171 0 1 -7c4,-27 0,-50 -11,-66 -11,-17 -30,-25 -56,-25z"/>
						<path id="4" class="fil2" d="M3268 1235c12,-18 27,-32 45,-41 18,-10 38,-14 60,-14 31,0 54,10 69,30 15,20 19,51 12,93l-27 182 -33 0 27 -182c5,-36 3,-60 -8,-74 -10,-13 -28,-20 -52,-20 -23,0 -43,6 -59,18 -17,12 -30,28 -39,48l-32 210 -33 0 45 -299 29 0 -4 50z"/>
						<path id="5" class="fil2" d="M3703 1484c0,-11 -1,-21 -1,-28 0,-7 1,-15 2,-22 -13,16 -29,29 -49,40 -20,11 -42,16 -66,16 -28,0 -49,-8 -64,-24 -14,-16 -20,-37 -15,-63 4,-28 19,-50 45,-66 26,-16 58,-24 95,-24l74 0 6 -37c3,-22 -1,-39 -13,-51 -12,-12 -30,-18 -55,-18 -22,0 -41,6 -57,17 -16,11 -25,25 -28,42l-30 0 0 -2c2,-23 15,-43 38,-60 23,-17 51,-25 84,-25 32,0 57,8 74,25 18,17 25,41 20,72l-22 147c-2,11 -3,21 -3,31 0,10 0,20 2,29l-35 0zm-107 -24c24,0 47,-6 68,-18 21,-12 36,-28 46,-46l9 -58 -74 0c-26,0 -49,6 -69,19 -20,13 -31,28 -34,46 -3,18 1,31 10,41 10,10 24,15 44,15z"/>
						<path id="6" class="fil2" d="M3996 1213l-23 -2c-20,0 -38,6 -53,18 -15,12 -28,29 -37,49l-31 205 -33 0 45 -299 29 0 -3 50 0 2c11,-18 25,-32 41,-42 16,-10 34,-15 54,-15 4,0 8,0 12,1 4,1 7,1 9,2l-9 31z"/>
						<path id="7" class="fil2" d="M4049 1484l-33 0 45 -299 33 0 -45 299zm58 -385l-33 0 7 -46 33 0 -7 46z"/>
						<path id="8" class="fil2" d="M4145 1330c7,-46 24,-82 52,-110 28,-27 62,-41 103,-41 38,0 68,14 89,43 21,29 28,64 21,108l-1 9c-7,46 -24,83 -52,110 -28,27 -62,41 -102,41 -39,0 -68,-14 -89,-43 -21,-28 -28,-64 -21,-108l1 -9zm32 9c-5,36 -1,65 13,88 14,23 37,34 68,34 29,0 55,-12 77,-36 22,-24 35,-53 41,-87l1 -9c5,-35 1,-65 -13,-88 -14,-23 -37,-35 -68,-35 -30,0 -55,12 -77,36 -22,24 -35,53 -40,86l-1 9z"/>
					</g>
					<g>
						<rect class="fil3" x="639" y="4080" width="1039" height="1039"/>
						<polygon class="fil2" points="2039,4773 2267,4773 2263,4800 1999,4800 1999,4775 2253,4426 2046,4426 2050,4398 2298,4398 2294,4422 "/>
						<path id="1" class="fil2" d="M2323 4646c7,-46 24,-82 52,-110 28,-27 62,-41 103,-41 38,0 68,14 89,43 21,29 28,64 21,108l-1 9c-7,46 -24,83 -52,110 -28,27 -62,41 -102,41 -39,0 -68,-14 -89,-43 -21,-28 -28,-64 -21,-108l1 -9zm32 9c-5,36 -1,65 13,88 14,23 37,34 68,34 29,0 55,-12 77,-36 22,-24 35,-53 41,-87l1 -9c5,-35 1,-65 -13,-88 -14,-23 -37,-35 -68,-35 -30,0 -55,12 -77,36 -22,24 -35,53 -40,86l-1 9z"/>
						<path id="2" class="fil2" d="M2703 4551c12,-18 27,-32 45,-41 18,-10 38,-14 60,-14 31,0 54,10 69,30 15,20 19,51 12,93l-27 182 -33 0 27 -182c5,-36 3,-60 -8,-74 -10,-13 -28,-20 -52,-20 -23,0 -43,6 -59,18 -17,12 -30,28 -39,48l-32 210 -33 0 45 -299 29 0 -4 50z"/>
						<path id="3" class="fil2" d="M3139 4800c0,-11 -1,-21 -1,-28 0,-7 1,-15 2,-22 -13,16 -29,29 -49,40 -20,11 -42,16 -66,16 -28,0 -49,-8 -64,-24 -14,-16 -20,-37 -15,-63 4,-28 19,-50 45,-66 26,-16 58,-24 95,-24l74 0 6 -37c3,-22 -1,-39 -13,-51 -12,-12 -30,-18 -55,-18 -22,0 -41,6 -57,17 -16,11 -25,25 -28,42l-30 0 0 -2c2,-23 15,-43 38,-60 23,-17 51,-25 84,-25 32,0 57,8 74,25 18,17 25,41 20,72l-22 147c-2,11 -3,21 -3,31 0,10 0,20 2,29l-35 0zm-107 -24c24,0 47,-6 68,-18 21,-12 36,-28 46,-46l9 -58 -74 0c-26,0 -49,6 -69,19 -20,13 -31,28 -34,46 -3,18 1,31 10,41 10,10 24,15 44,15z"/>
						<path id="4" class="fil2" d="M3399 4800l60 -403 123 0c47,0 85,17 113,50 28,33 38,75 31,126l-8 52c-8,53 -30,96 -67,128 -36,32 -80,48 -130,48l-123 0zm89 -375l-52 347 90 0c38,0 73,-14 104,-42 31,-28 49,-63 56,-105l8 -53c6,-44 -1,-79 -23,-106 -21,-27 -52,-41 -93,-41l-90 0z"/>
						<path id="5" class="fil2" d="M3810 4800l-33 0 45 -299 33 0 -45 299zm58 -385l-33 0 7 -46 33 0 -7 46z"/>
						<path id="6" class="fil2" d="M4091 4800c0,-11 -1,-21 -1,-28 0,-7 1,-15 2,-22 -13,16 -29,29 -49,40 -20,11 -42,16 -66,16 -28,0 -49,-8 -64,-24 -14,-16 -20,-37 -15,-63 4,-28 19,-50 45,-66 26,-16 58,-24 95,-24l74 0 6 -37c3,-22 -1,-39 -13,-51 -12,-12 -30,-18 -55,-18 -22,0 -41,6 -57,17 -16,11 -25,25 -28,42l-30 0 0 -2c2,-23 15,-43 38,-60 23,-17 51,-25 84,-25 32,0 57,8 74,25 18,17 25,41 20,72l-22 147c-2,11 -3,21 -3,31 0,10 0,20 2,29l-35 0zm-107 -24c24,0 47,-6 68,-18 21,-12 36,-28 46,-46l9 -58 -74 0c-26,0 -49,6 -69,19 -20,13 -31,28 -34,46 -3,18 1,31 10,41 10,10 24,15 44,15z"/>
						<path id="7" class="fil2" d="M4275 4548c12,-17 27,-30 44,-39 17,-9 37,-14 59,-14 22,0 40,5 53,16 14,11 23,27 26,50 12,-21 27,-37 46,-49 19,-12 40,-17 64,-17 31,0 54,11 68,32 15,21 19,54 12,98l-26 175 -33 0 26 -175c6,-38 3,-65 -7,-79 -11,-14 -28,-22 -51,-22 -24,0 -45,8 -61,24 -17,16 -29,36 -36,61l-2 12 -27 180 -34 0 26 -175c6,-38 3,-64 -8,-79 -11,-15 -28,-22 -51,-22 -23,0 -42,6 -58,18 -16,12 -28,28 -37,49l-31 209 -33 0 45 -299 29 0 -4 47z"/>
						<path id="8" class="fil2" d="M4898 4800c0,-11 -1,-21 -1,-28 0,-7 1,-15 2,-22 -13,16 -29,29 -49,40 -20,11 -42,16 -66,16 -28,0 -49,-8 -64,-24 -14,-16 -20,-37 -15,-63 4,-28 19,-50 45,-66 26,-16 58,-24 95,-24l74 0 6 -37c3,-22 -1,-39 -13,-51 -12,-12 -30,-18 -55,-18 -22,0 -41,6 -57,17 -16,11 -25,25 -28,42l-30 0 0 -2c2,-23 15,-43 38,-60 23,-17 51,-25 84,-25 32,0 57,8 74,25 18,17 25,41 20,72l-22 147c-2,11 -3,21 -3,31 0,10 0,20 2,29l-35 0zm-107 -24c24,0 47,-6 68,-18 21,-12 36,-28 46,-46l9 -58 -74 0c-26,0 -49,6 -69,19 -20,13 -31,28 -34,46 -3,18 1,31 10,41 10,10 24,15 44,15z"/>
						<path id="9" class="fil2" d="M5082 4551c12,-18 27,-32 45,-41 18,-10 38,-14 60,-14 31,0 54,10 69,30 15,20 19,51 12,93l-27 182 -33 0 27 -182c5,-36 3,-60 -8,-74 -10,-13 -28,-20 -52,-20 -23,0 -43,6 -59,18 -17,12 -30,28 -39,48l-32 210 -33 0 45 -299 29 0 -4 50z"/>
						<path id="10" class="fil2" d="M5436 4425l-12 77 66 0 -4 27 -66 0 -29 195c-3,20 -2,35 4,42 6,8 15,12 27,12 4,0 8,0 12,-1 4,-1 9,-1 13,-2l1 25c-5,2 -11,4 -17,6 -7,1 -13,2 -20,2 -20,0 -36,-7 -46,-20 -10,-13 -13,-34 -9,-63l29 -195 -51 0 4 -27 52 0 12 -77 33 0z"/>
						<path id="11" class="fil2" d="M5623 4806c-37,0 -66,-14 -87,-42 -21,-28 -28,-63 -22,-105l3 -15c6,-45 24,-81 52,-108 28,-27 61,-41 98,-41 35,0 61,12 78,35 17,24 22,55 17,94l-4 26 -208 0 -1 9c-5,35 -1,64 13,86 14,22 36,33 67,33 17,0 35,-3 51,-9 17,-6 31,-14 42,-24l11 23c-12,11 -27,20 -46,28 -18,7 -39,11 -63,11zm39 -283c-24,0 -46,9 -66,28 -20,19 -33,42 -40,69l1 2 171 0 1 -7c4,-27 0,-50 -11,-66 -11,-17 -30,-25 -56,-25z"/>
					</g>
					<g>
						<rect class="fil4" x="639" y="2416" width="1039" height="1039"/>
						<polygon class="fil2" points="2040,3120 2267,3120 2263,3148 1999,3148 1999,3122 2253,2773 2046,2773 2050,2745 2298,2745 2294,2769 "/>
						<path id="1" class="fil2" d="M2323 2994c7,-46 24,-82 52,-110 28,-27 62,-41 103,-41 38,0 68,14 89,43 21,29 28,64 21,108l-1 9c-7,46 -24,83 -52,110 -28,27 -62,41 -102,41 -39,0 -68,-14 -89,-43 -21,-28 -28,-64 -21,-108l1 -9zm32 9c-5,36 -1,65 13,88 14,23 37,34 68,34 29,0 55,-12 77,-36 22,-24 35,-53 41,-87l1 -9c5,-35 1,-65 -13,-88 -14,-23 -37,-35 -68,-35 -30,0 -55,12 -77,36 -22,24 -35,53 -40,86l-1 9z"/>
						<path id="2" class="fil2" d="M2703 2899c12,-18 27,-32 45,-41 18,-10 38,-14 60,-14 31,0 54,10 69,30 15,20 19,51 12,93l-27 182 -33 0 27 -182c5,-36 3,-60 -8,-74 -10,-13 -28,-20 -52,-20 -23,0 -43,6 -59,18 -17,12 -30,28 -39,48l-32 210 -33 0 45 -299 29 0 -4 50z"/>
						<path id="3" class="fil2" d="M3139 3148c0,-11 -1,-21 -1,-28 0,-7 1,-15 2,-22 -13,16 -29,29 -49,40 -20,11 -42,16 -66,16 -28,0 -49,-8 -64,-24 -14,-16 -20,-37 -15,-63 4,-28 19,-50 45,-66 26,-16 58,-24 95,-24l74 0 6 -37c3,-22 -1,-39 -13,-51 -12,-12 -30,-18 -55,-18 -22,0 -41,6 -57,17 -16,11 -25,25 -28,42l-30 0 0 -2c2,-23 15,-43 38,-60 23,-17 51,-25 84,-25 32,0 57,8 74,25 18,17 25,41 20,72l-22 147c-2,11 -3,21 -3,31 0,10 0,20 2,29l-35 0zm-107 -24c24,0 47,-6 68,-18 21,-12 36,-28 46,-46l9 -58 -74 0c-26,0 -49,6 -69,19 -20,13 -31,28 -34,46 -3,18 1,31 10,41 10,10 24,15 44,15z"/>
						<polygon id="4" class="fil2" points="3523,3077 3527,3105 3528,3106 3541,3077 3712,2745 3748,2745 3537,3148 3506,3148 3416,2745 3452,2745 "/>
						<polygon id="5" class="fil2" points="3789,3148 3755,3148 3816,2745 3849,2745 "/>
						<path id="6" class="fil2" d="M3958 2981l-25 167 -33 0 60 -403 139 0c40,0 71,11 92,33 21,22 29,50 24,85 -6,37 -22,66 -47,87 -26,21 -60,31 -103,31l-106 0zm4 -28l106 0c32,0 58,-9 77,-26 20,-17 32,-38 36,-63 4,-27 -1,-48 -15,-65 -14,-17 -38,-25 -71,-25l-106 0 -27 179z"/>
					</g>
					<g>
						<rect class="fil5" x="639" y="5744" width="1039" height="1039"/>
						<polygon class="fil2" points="2040,6448 2267,6448 2263,6476 1999,6476 1999,6450 2253,6101 2046,6101 2050,6073 2298,6073 2294,6097 "/>
						<path id="1" class="fil2" d="M2323 6322c7,-46 24,-82 52,-110 28,-27 62,-41 103,-41 38,0 68,14 89,43 21,29 28,64 21,108l-1 9c-7,46 -24,83 -52,110 -28,27 -62,41 -102,41 -39,0 -68,-14 -89,-43 -21,-28 -28,-64 -21,-108l1 -9zm32 9c-5,36 -1,65 13,88 14,23 37,34 68,34 29,0 55,-12 77,-36 22,-24 35,-53 41,-87l1 -9c5,-35 1,-65 -13,-88 -14,-23 -37,-35 -68,-35 -30,0 -55,12 -77,36 -22,24 -35,53 -40,86l-1 9z"/>
						<path id="2" class="fil2" d="M2703 6227c12,-18 27,-32 45,-41 18,-10 38,-14 60,-14 31,0 54,10 69,30 15,20 19,51 12,93l-27 182 -33 0 27 -182c5,-36 3,-60 -8,-74 -10,-13 -28,-20 -52,-20 -23,0 -43,6 -59,18 -17,12 -30,28 -39,48l-32 210 -33 0 45 -299 29 0 -4 50z"/>
						<path id="3" class="fil2" d="M3139 6476c0,-11 -1,-21 -1,-28 0,-7 1,-15 2,-22 -13,16 -29,29 -49,40 -20,11 -42,16 -66,16 -28,0 -49,-8 -64,-24 -14,-16 -20,-37 -15,-63 4,-28 19,-50 45,-66 26,-16 58,-24 95,-24l74 0 6 -37c3,-22 -1,-39 -13,-51 -12,-12 -30,-18 -55,-18 -22,0 -41,6 -57,17 -16,11 -25,25 -28,42l-30 0 0 -2c2,-23 15,-43 38,-60 23,-17 51,-25 84,-25 32,0 57,8 74,25 18,17 25,41 20,72l-22 147c-2,11 -3,21 -3,31 0,10 0,20 2,29l-35 0zm-107 -24c24,0 47,-6 68,-18 21,-12 36,-28 46,-46l9 -58 -74 0c-26,0 -49,6 -69,19 -20,13 -31,28 -34,46 -3,18 1,31 10,41 10,10 24,15 44,15z"/>
						<path id="4" class="fil2" d="M3720 6307c-8,54 -29,97 -61,128 -33,31 -74,47 -122,47 -45,0 -80,-16 -104,-49 -24,-32 -33,-74 -25,-126l10 -66c8,-54 28,-96 61,-128 32,-31 73,-47 120,-47 46,0 81,16 106,49 25,33 33,74 25,126l-10 66zm-23 -66c7,-45 1,-81 -17,-106 -18,-26 -47,-39 -86,-39 -37,0 -68,13 -95,40 -26,27 -42,62 -49,105l-10 66c-7,46 -2,81 16,107 17,26 46,39 85,39 38,0 70,-13 97,-40 27,-27 43,-62 50,-105l10 -66z"/>
						<path id="5" class="fil2" d="M3950 6205l-23 -2c-20,0 -38,6 -53,18 -15,12 -28,29 -37,49l-31 205 -33 0 45 -299 29 0 -3 50 0 2c11,-18 25,-32 41,-42 16,-10 34,-15 54,-15 4,0 8,0 12,1 4,1 7,1 9,2l-9 31z"/>
						<path id="6" class="fil2" d="M3965 6322c7,-46 24,-82 52,-110 28,-27 62,-41 103,-41 38,0 68,14 89,43 21,29 28,64 21,108l-1 9c-7,46 -24,83 -52,110 -28,27 -62,41 -102,41 -39,0 -68,-14 -89,-43 -21,-28 -28,-64 -21,-108l1 -9zm32 9c-5,36 -1,65 13,88 14,23 37,34 68,34 29,0 55,-12 77,-36 22,-24 35,-53 41,-87l1 -9c5,-35 1,-65 -13,-88 -14,-23 -37,-35 -68,-35 -30,0 -55,12 -77,36 -22,24 -35,53 -40,86l-1 9z"/>
					</g>
					<g>
						<rect class="fil6" x="639" y="7408" width="1039" height="1039"/>
						<polygon class="fil2" points="2039,8101 2267,8101 2263,8128 1999,8128 1999,8103 2253,7754 2046,7754 2050,7726 2298,7726 2294,7750 "/>
						<path id="1" class="fil2" d="M2323 7974c7,-46 24,-82 52,-110 28,-27 62,-41 103,-41 38,0 68,14 89,43 21,29 28,64 21,108l-1 9c-7,46 -24,83 -52,110 -28,27 -62,41 -102,41 -39,0 -68,-14 -89,-43 -21,-28 -28,-64 -21,-108l1 -9zm32 9c-5,36 -1,65 13,88 14,23 37,34 68,34 29,0 55,-12 77,-36 22,-24 35,-53 41,-87l1 -9c5,-35 1,-65 -13,-88 -14,-23 -37,-35 -68,-35 -30,0 -55,12 -77,36 -22,24 -35,53 -40,86l-1 9z"/>
						<path id="2" class="fil2" d="M2703 7879c12,-18 27,-32 45,-41 18,-10 38,-14 60,-14 31,0 54,10 69,30 15,20 19,51 12,93l-27 182 -33 0 27 -182c5,-36 3,-60 -8,-74 -10,-13 -28,-20 -52,-20 -23,0 -43,6 -59,18 -17,12 -30,28 -39,48l-32 210 -33 0 45 -299 29 0 -4 50z"/>
						<path id="3" class="fil2" d="M3139 8128c0,-11 -1,-21 -1,-28 0,-7 1,-15 2,-22 -13,16 -29,29 -49,40 -20,11 -42,16 -66,16 -28,0 -49,-8 -64,-24 -14,-16 -20,-37 -15,-63 4,-28 19,-50 45,-66 26,-16 58,-24 95,-24l74 0 6 -37c3,-22 -1,-39 -13,-51 -12,-12 -30,-18 -55,-18 -22,0 -41,6 -57,17 -16,11 -25,25 -28,42l-30 0 0 -2c2,-23 15,-43 38,-60 23,-17 51,-25 84,-25 32,0 57,8 74,25 18,17 25,41 20,72l-22 147c-2,11 -3,21 -3,31 0,10 0,20 2,29l-35 0zm-107 -24c24,0 47,-6 68,-18 21,-12 36,-28 46,-46l9 -58 -74 0c-26,0 -49,6 -69,19 -20,13 -31,28 -34,46 -3,18 1,31 10,41 10,10 24,15 44,15z"/>
						<path id="4" class="fil2" d="M3457 7961l-25 167 -33 0 60 -403 139 0c40,0 71,11 92,33 21,22 29,50 24,85 -6,37 -22,66 -48,87 -26,21 -60,31 -103,31l-106 0zm4 -28l106 0c32,0 58,-9 77,-26 20,-17 32,-38 36,-63 4,-27 -1,-48 -15,-65 -14,-17 -38,-25 -71,-25l-106 0 -27 179z"/>
						<polygon id="5" class="fil2" points="3778,8128 3745,8128 3810,7697 3843,7697 "/>
						<path id="6" class="fil2" d="M4059 8128c0,-11 -1,-21 -1,-28 0,-7 1,-15 2,-22 -13,16 -29,29 -49,40 -20,11 -42,16 -66,16 -28,0 -49,-8 -64,-24 -14,-16 -20,-37 -15,-63 4,-28 19,-50 45,-66 26,-16 58,-24 95,-24l74 0 6 -37c3,-22 -1,-39 -13,-51 -12,-12 -30,-18 -55,-18 -22,0 -41,6 -57,17 -16,11 -25,25 -28,42l-30 0 0 -2c2,-23 15,-43 38,-60 23,-17 51,-25 84,-25 32,0 57,8 74,25 18,17 25,41 20,72l-22 147c-2,11 -3,21 -3,31 0,10 0,20 2,29l-35 0zm-107 -24c24,0 47,-6 68,-18 21,-12 36,-28 46,-46l9 -58 -74 0c-26,0 -49,6 -69,19 -20,13 -31,28 -34,46 -3,18 1,31 10,41 10,10 24,15 44,15z"/>
						<path id="7" class="fil2" d="M4282 7753l-12 77 66 0 -4 27 -66 0 -29 195c-3,20 -2,35 4,42 6,8 15,12 27,12 4,0 8,0 12,-1 4,-1 9,-1 13,-2l1 25c-5,2 -11,4 -17,6 -7,1 -13,2 -20,2 -20,0 -36,-7 -46,-20 -10,-13 -13,-34 -9,-63l29 -195 -51 0 4 -27 52 0 12 -77 33 0z"/>
						<path id="8" class="fil2" d="M4546 8128c0,-11 -1,-21 -1,-28 0,-7 1,-15 2,-22 -13,16 -29,29 -49,40 -20,11 -42,16 -66,16 -28,0 -49,-8 -64,-24 -14,-16 -20,-37 -15,-63 4,-28 19,-50 45,-66 26,-16 58,-24 95,-24l74 0 6 -37c3,-22 -1,-39 -13,-51 -12,-12 -30,-18 -55,-18 -22,0 -41,6 -57,17 -16,11 -25,25 -28,42l-30 0 0 -2c2,-23 15,-43 38,-60 23,-17 51,-25 84,-25 32,0 57,8 74,25 18,17 25,41 20,72l-22 147c-2,11 -3,21 -3,31 0,10 0,20 2,29l-35 0zm-107 -24c24,0 47,-6 68,-18 21,-12 36,-28 46,-46l9 -58 -74 0c-26,0 -49,6 -69,19 -20,13 -31,28 -34,46 -3,18 1,31 10,41 10,10 24,15 44,15z"/>
					</g>
				</g>
				<g id="diagrama">
					<g id="plata1" class="diagrama-btn">
						<path id="rectangulo-plata1" class="fil6" d="M20359 2208c583,1234 934,2705 965,4289l3332 0c-25,-2072 -398,-4024 -1040,-5745l-3256 1456z"/>
						<path class="fil2" d="M22023 3737l0 -345 129 0c26,0 47,3 63,10 16,7 28,18 37,32 9,14 14,30 14,46 0,15 -4,29 -12,42 -8,13 -20,24 -36,32 21,6 37,17 48,31 11,15 17,32 17,52 0,16 -3,31 -10,45 -7,14 -15,25 -25,32 -10,7 -23,13 -38,17 -15,4 -34,6 -56,6l-132 0zm46 -200l75 0c20,0 35,-1 44,-4 12,-3 20,-9 26,-17 6,-8 9,-18 9,-30 0,-11 -3,-22 -8,-30 -5,-9 -13,-15 -24,-18 -10,-3 -28,-5 -52,-5l-69 0 0 105zm0 159l86 0c15,0 25,-1 31,-2 10,-2 19,-5 26,-9 7,-4 13,-11 17,-19 5,-8 7,-18 7,-29 0,-13 -3,-24 -10,-34 -7,-10 -16,-16 -27,-20 -12,-4 -29,-6 -50,-6l-80 0 0 119z"/>
						<polygon id="1" class="fil2" points="22340,3737 22340,3392 22382,3392 22382,3737 "/>
						<path id="2" class="fil2" d="M22432 3612c0,-46 13,-80 39,-103 21,-18 48,-28 79,-28 34,0 62,11 84,34 22,22 33,53 33,93 0,32 -5,57 -14,76 -10,18 -24,33 -42,43 -18,10 -39,15 -60,15 -35,0 -63,-11 -85,-34 -22,-22 -32,-55 -32,-97zm43 0c0,32 7,56 21,72 14,16 32,24 53,24 21,0 39,-8 53,-24 14,-16 21,-40 21,-73 0,-31 -7,-54 -21,-70 -14,-16 -32,-24 -52,-24 -21,0 -39,8 -53,24 -14,16 -21,40 -21,72z"/>
						<path id="3" class="fil2" d="M22875 3833l0 -123c-7,9 -16,17 -28,23 -12,6 -24,9 -38,9 -30,0 -55,-12 -77,-35 -21,-24 -32,-56 -32,-97 0,-25 4,-48 13,-67 9,-20 21,-35 38,-45 17,-10 35,-15 54,-15 31,0 55,13 73,39l0 -34 38 0 0 346 -42 0zm-131 -222c0,32 7,56 20,72 13,16 30,24 48,24 18,0 34,-8 47,-23 13,-15 20,-39 20,-70 0,-33 -7,-58 -21,-75 -14,-17 -30,-25 -48,-25 -18,0 -34,8 -47,23 -13,16 -19,40 -19,73z"/>
						<path id="4" class="fil2" d="M23147 3737l0 -37c-19,28 -46,42 -79,42 -15,0 -28,-3 -41,-8 -13,-6 -22,-13 -28,-21 -6,-9 -11,-19 -13,-31 -2,-8 -3,-22 -3,-40l0 -155 42 0 0 138c0,22 1,37 3,45 3,11 8,20 17,26 9,6 19,10 32,10 13,0 25,-3 36,-10 11,-7 19,-15 24,-27 5,-11 7,-27 7,-49l0 -134 42 0 0 250 -38 0z"/>
						<path id="5" class="fil2" d="M23422 3656l44 6c-7,25 -20,45 -38,59 -19,14 -42,21 -71,21 -36,0 -65,-11 -87,-34 -21,-22 -32,-54 -32,-94 0,-42 11,-75 32,-98 22,-23 50,-35 84,-35 33,0 61,11 82,34 21,23 32,55 32,96 0,2 0,6 0,11l-186 0c2,27 9,48 23,63 14,15 31,22 52,22 15,0 29,-4 40,-12 11,-8 20,-21 26,-39zm-139 -68l139 0c-2,-21 -7,-37 -16,-47 -13,-16 -31,-24 -52,-24 -19,0 -36,7 -49,20 -13,13 -20,30 -22,52z"/>
						<path id="6" class="fil2" d="M22395 4275l-42 0 0 -270c-10,10 -24,20 -40,29 -17,10 -31,17 -45,22l0 -41c24,-11 44,-25 62,-40 18,-16 30,-31 38,-46l27 0 0 346z"/>
						<path id="7" class="fil2" d="M22647 4371l-5 -39c9,2 17,4 24,4 9,0 17,-2 23,-5 6,-3 10,-8 14,-13 3,-4 7,-15 13,-32 1,-2 2,-6 4,-10l-95 -251 45 0 52 144c7,18 13,37 18,58 5,-19 11,-38 17,-56l53 -146 42 0 -95 254c-10,27 -18,46 -24,57 -8,14 -16,24 -26,31 -10,6 -21,10 -35,10 -8,0 -17,-2 -27,-5z"/>
						<path id="8" class="fil2" d="M23235 4235l0 40 -228 0c0,-10 1,-20 5,-29 6,-15 15,-31 28,-46 13,-15 31,-32 55,-52 37,-31 63,-55 76,-73 13,-18 20,-35 20,-51 0,-17 -6,-31 -18,-42 -12,-11 -28,-17 -47,-17 -20,0 -37,6 -49,18 -12,12 -18,29 -19,51l-43 -4c3,-32 14,-57 34,-74 20,-17 46,-26 78,-26 33,0 59,9 79,28 19,18 29,41 29,68 0,14 -3,27 -9,41 -6,13 -15,27 -28,42 -13,15 -35,35 -65,61 -25,21 -42,36 -49,43 -7,8 -13,15 -18,23l169 0z"/>
					</g>
					<g id="plata2" class="diagrama-btn">
						<path id="rectangulo-plata2" class="fil6" d="M21324 6944c-32,1691 -430,3254 -1087,4537l2381 3338c1244,-2156 2002,-4891 2038,-7874l-3332 0z"/>
						<path class="fil2" d="M21864 9931l0 -345 129 0c26,0 47,3 63,10 16,7 28,18 37,32 9,14 14,30 14,46 0,15 -4,29 -12,42 -8,13 -20,24 -36,32 21,6 37,17 48,31 11,15 17,32 17,52 0,16 -3,31 -10,45 -7,14 -15,25 -25,32 -10,7 -23,13 -38,17 -15,4 -34,6 -56,6l-132 0zm46 -200l75 0c20,0 35,-1 44,-4 12,-3 20,-9 26,-17 6,-8 9,-18 9,-30 0,-11 -3,-22 -8,-30 -5,-9 -13,-15 -24,-18 -10,-3 -28,-5 -52,-5l-69 0 0 105zm0 159l86 0c15,0 25,-1 31,-2 10,-2 19,-5 26,-9 7,-4 13,-11 17,-19 5,-8 7,-18 7,-29 0,-13 -3,-24 -10,-34 -7,-10 -16,-16 -27,-20 -12,-4 -29,-6 -50,-6l-80 0 0 119z"/>
						<polygon id="1" class="fil2" points="22181,9931 22181,9586 22223,9586 22223,9931 "/>
						<path id="2" class="fil2" d="M22273 9806c0,-46 13,-80 39,-103 21,-18 48,-28 79,-28 34,0 62,11 84,34 22,22 33,53 33,93 0,32 -5,57 -14,76 -10,18 -24,33 -42,43 -18,10 -39,15 -60,15 -35,0 -63,-11 -85,-34 -22,-22 -32,-55 -32,-97zm43 0c0,32 7,56 21,72 14,16 32,24 53,24 21,0 39,-8 53,-24 14,-16 21,-40 21,-73 0,-31 -7,-54 -21,-70 -14,-16 -32,-24 -52,-24 -21,0 -39,8 -53,24 -14,16 -21,40 -21,72z"/>
						<path id="3" class="fil2" d="M22716 10027l0 -123c-7,9 -16,17 -28,23 -12,6 -24,9 -38,9 -30,0 -55,-12 -77,-35 -21,-24 -32,-56 -32,-97 0,-25 4,-48 13,-67 9,-20 21,-35 38,-45 17,-10 35,-15 54,-15 31,0 55,13 73,39l0 -34 38 0 0 346 -42 0zm-131 -222c0,32 7,56 20,72 13,16 30,24 48,24 18,0 34,-8 47,-23 13,-15 20,-39 20,-70 0,-33 -7,-58 -21,-75 -14,-17 -30,-25 -48,-25 -18,0 -34,8 -47,23 -13,16 -19,40 -19,73z"/>
						<path id="4" class="fil2" d="M22988 9931l0 -37c-19,28 -46,42 -79,42 -15,0 -28,-3 -41,-8 -13,-6 -22,-13 -28,-21 -6,-9 -11,-19 -13,-31 -2,-8 -3,-22 -3,-40l0 -155 42 0 0 138c0,22 1,37 3,45 3,11 8,20 17,26 9,6 19,10 32,10 13,0 25,-3 36,-10 11,-7 19,-15 24,-27 5,-11 7,-27 7,-49l0 -134 42 0 0 250 -38 0z"/>
						<path id="5" class="fil2" d="M23263 9850l44 6c-7,25 -20,45 -38,59 -19,14 -42,21 -71,21 -36,0 -65,-11 -87,-34 -21,-22 -32,-54 -32,-94 0,-42 11,-75 32,-98 22,-23 50,-35 84,-35 33,0 61,11 82,34 21,23 32,55 32,96 0,2 0,6 0,11l-186 0c2,27 9,48 23,63 14,15 31,22 52,22 15,0 29,-4 40,-12 11,-8 20,-21 26,-39zm-139 -68l139 0c-2,-21 -7,-37 -16,-47 -13,-16 -31,-24 -52,-24 -19,0 -36,7 -49,20 -13,13 -20,30 -22,52z"/>
						<path id="6" class="fil2" d="M22077 10377l42 -6c5,24 13,41 25,52 12,11 26,16 43,16 20,0 37,-7 51,-21 14,-14 20,-31 20,-51 0,-19 -6,-35 -19,-48 -13,-13 -29,-19 -48,-19 -8,0 -18,2 -30,5l5 -37c3,0 5,0 7,0 18,0 34,-5 49,-14 14,-9 22,-24 22,-43 0,-15 -5,-28 -16,-39 -11,-10 -24,-15 -41,-15 -17,0 -30,5 -41,16 -11,10 -18,26 -21,47l-42 -8c5,-28 17,-51 35,-66 18,-16 41,-23 68,-23 19,0 36,4 52,12 16,8 28,19 36,33 8,14 13,29 13,44 0,15 -4,28 -12,41 -8,12 -20,22 -36,29 20,5 36,14 48,29 11,15 17,33 17,56 0,30 -11,56 -33,77 -22,21 -50,31 -83,31 -30,0 -55,-9 -75,-27 -20,-18 -31,-41 -34,-70z"/>
						<path id="7" class="fil2" d="M22488 10565l-5 -39c9,2 17,4 24,4 9,0 17,-2 23,-5 6,-3 10,-8 14,-13 3,-4 7,-15 13,-32 1,-2 2,-6 4,-10l-95 -251 45 0 52 144c7,18 13,37 18,58 5,-19 11,-38 17,-56l53 -146 42 0 -95 254c-10,27 -18,46 -24,57 -8,14 -16,24 -26,31 -10,6 -21,10 -35,10 -8,0 -17,-2 -27,-5z"/>
						<path id="8" class="fil2" d="M22989 10469l0 -82 -150 0 0 -39 158 -224 35 0 0 224 47 0 0 39 -47 0 0 82 -42 0zm0 -121l0 -155 -108 155 108 0z"/>
					</g>
					<g id="plata3" class="diagrama-btn">
						<path id="rectangulo-plata3" class="fil6" d="M8723 15236c1669,2654 4107,4328 6821,4328 2715,0 5152,-1673 6822,-4328l-2368 -3320c-1060,1804 -2662,2953 -4454,2953 -1792,0 -3393,-1149 -4454,-2952l-2368 3320z"/>
						<path class="fil2" d="M14821 16784l0 -345 129 0c26,0 47,3 63,10 16,7 28,18 37,32 9,14 14,30 14,46 0,15 -4,29 -12,42 -8,13 -20,24 -36,32 21,6 37,17 48,31 11,15 17,32 17,52 0,16 -3,31 -10,45 -7,14 -15,25 -25,32 -10,7 -23,13 -38,17 -15,4 -34,6 -56,6l-132 0zm46 -200l75 0c20,0 35,-1 44,-4 12,-3 20,-9 26,-17 6,-8 9,-18 9,-30 0,-11 -3,-22 -8,-30 -5,-9 -13,-15 -24,-18 -10,-3 -28,-5 -52,-5l-69 0 0 105zm0 159l86 0c15,0 25,-1 31,-2 10,-2 19,-5 26,-9 7,-4 13,-11 17,-19 5,-8 7,-18 7,-29 0,-13 -3,-24 -10,-34 -7,-10 -16,-16 -27,-20 -12,-4 -29,-6 -50,-6l-80 0 0 119z"/>
						<polygon id="1" class="fil2" points="15138,16784 15138,16439 15180,16439 15180,16784 "/>
						<path id="2" class="fil2" d="M15230 16659c0,-46 13,-80 39,-103 21,-18 48,-28 79,-28 34,0 62,11 84,34 22,22 33,53 33,93 0,32 -5,57 -14,76 -10,18 -24,33 -42,43 -18,10 -39,15 -60,15 -35,0 -63,-11 -85,-34 -22,-22 -32,-55 -32,-97zm43 0c0,32 7,56 21,72 14,16 32,24 53,24 21,0 39,-8 53,-24 14,-16 21,-40 21,-73 0,-31 -7,-54 -21,-70 -14,-16 -32,-24 -52,-24 -21,0 -39,8 -53,24 -14,16 -21,40 -21,72z"/>
						<path id="3" class="fil2" d="M15673 16880l0 -123c-7,9 -16,17 -28,23 -12,6 -24,9 -38,9 -30,0 -55,-12 -77,-35 -21,-24 -32,-56 -32,-97 0,-25 4,-48 13,-67 9,-20 21,-35 38,-45 17,-10 35,-15 54,-15 31,0 55,13 73,39l0 -34 38 0 0 346 -42 0zm-131 -222c0,32 7,56 20,72 13,16 30,24 48,24 18,0 34,-8 47,-23 13,-15 20,-39 20,-70 0,-33 -7,-58 -21,-75 -14,-17 -30,-25 -48,-25 -18,0 -34,8 -47,23 -13,16 -19,40 -19,73z"/>
						<path id="4" class="fil2" d="M15945 16784l0 -37c-19,28 -46,42 -79,42 -15,0 -28,-3 -41,-8 -13,-6 -22,-13 -28,-21 -6,-9 -11,-19 -13,-31 -2,-8 -3,-22 -3,-40l0 -155 42 0 0 138c0,22 1,37 3,45 3,11 8,20 17,26 9,6 19,10 32,10 13,0 25,-3 36,-10 11,-7 19,-15 24,-27 5,-11 7,-27 7,-49l0 -134 42 0 0 250 -38 0z"/>
						<path id="5" class="fil2" d="M16220 16703l44 6c-7,25 -20,45 -38,59 -19,14 -42,21 -71,21 -36,0 -65,-11 -87,-34 -21,-22 -32,-54 -32,-94 0,-42 11,-75 32,-98 22,-23 50,-35 84,-35 33,0 61,11 82,34 21,23 32,55 32,96 0,2 0,6 0,11l-186 0c2,27 9,48 23,63 14,15 31,22 52,22 15,0 29,-4 40,-12 11,-8 20,-21 26,-39zm-139 -68l139 0c-2,-21 -7,-37 -16,-47 -13,-16 -31,-24 -52,-24 -19,0 -36,7 -49,20 -13,13 -20,30 -22,52z"/>
						<path id="6" class="fil2" d="M14766 17232l44 -3c3,22 11,38 23,49 12,11 26,16 44,16 21,0 38,-8 52,-23 14,-15 21,-36 21,-61 0,-24 -7,-43 -20,-57 -13,-14 -31,-21 -53,-21 -14,0 -26,3 -37,9 -11,6 -19,14 -26,24l-40 -6 33 -177 171 0 0 40 -137 0 -18 93c21,-15 42,-22 65,-22 30,0 55,10 76,31 21,21 31,48 31,80 0,31 -9,58 -27,81 -22,28 -52,42 -90,42 -31,0 -57,-9 -77,-26 -20,-18 -31,-41 -34,-70z"/>
						<path id="7" class="fil2" d="M15057 17323l0 -48 48 0 0 48c0,18 -3,32 -9,43 -6,11 -16,19 -30,25l-12 -18c9,-4 16,-10 20,-17 4,-8 7,-19 7,-33l-24 0z"/>
						<path id="8" class="fil2" d="M15522 17062l-42 3c-4,-17 -9,-29 -16,-36 -11,-12 -26,-18 -43,-18 -14,0 -26,4 -36,11 -13,10 -24,24 -32,42 -8,19 -12,45 -12,80 10,-15 23,-27 37,-35 15,-8 30,-11 46,-11 28,0 52,10 72,31 20,21 30,48 30,81 0,22 -5,42 -14,60 -9,19 -22,33 -39,43 -16,10 -35,15 -56,15 -35,0 -64,-13 -86,-39 -22,-26 -33,-69 -33,-128 0,-67 12,-115 37,-145 22,-26 50,-40 87,-40 27,0 49,8 67,23 17,15 28,36 31,63zm-173 149c0,15 3,29 9,42 6,13 15,23 26,30 11,7 23,11 35,11 18,0 33,-7 46,-22 13,-14 19,-34 19,-59 0,-24 -6,-43 -19,-56 -13,-14 -29,-21 -48,-21 -19,0 -35,7 -49,21 -13,14 -20,32 -20,54z"/>
						<path id="9" class="fil2" d="M15713 17419l-5 -39c9,2 17,4 24,4 9,0 17,-2 23,-5 6,-3 10,-8 14,-13 3,-4 7,-15 13,-32 1,-2 2,-6 4,-10l-95 -251 45 0 52 144c7,18 13,37 18,58 5,-19 11,-38 17,-56l53 -146 42 0 -95 254c-10,27 -18,46 -24,57 -8,14 -16,24 -26,31 -10,6 -21,10 -35,10 -8,0 -17,-2 -27,-5z"/>
						<path id="10" class="fil2" d="M16080 17022l0 -40 223 0 0 33c-22,23 -44,54 -65,93 -22,39 -38,79 -50,120 -8,29 -14,61 -16,95l-43 0c0,-27 6,-60 16,-98 10,-39 25,-76 44,-111 19,-36 39,-66 61,-90l-169 0z"/>
					</g>
					<g id="plata4" class="diagrama-btn">
						<path id="rectangulo-plata4" class="fil6" d="M6433 6944c36,2983 794,5719 2038,7874l2381 -3338c-656,-1283 -1054,-2846 -1087,-4537l-3332 0z"/>
						<path class="fil2" d="M8018 9931l0 -345 129 0c26,0 47,3 63,10 16,7 28,18 37,32 9,14 14,30 14,46 0,15 -4,29 -12,42 -8,13 -20,24 -36,32 21,6 37,17 48,31 11,15 17,32 17,52 0,16 -3,31 -10,45 -7,14 -15,25 -25,32 -10,7 -23,13 -38,17 -15,4 -34,6 -56,6l-132 0zm46 -200l75 0c20,0 35,-1 44,-4 12,-3 20,-9 26,-17 6,-8 9,-18 9,-30 0,-11 -3,-22 -8,-30 -5,-9 -13,-15 -24,-18 -10,-3 -28,-5 -52,-5l-69 0 0 105zm0 159l86 0c15,0 25,-1 31,-2 10,-2 19,-5 26,-9 7,-4 13,-11 17,-19 5,-8 7,-18 7,-29 0,-13 -3,-24 -10,-34 -7,-10 -16,-16 -27,-20 -12,-4 -29,-6 -50,-6l-80 0 0 119z"/>
						<polygon id="1" class="fil2" points="8335,9931 8335,9586 8377,9586 8377,9931 "/>
						<path id="2" class="fil2" d="M8427 9806c0,-46 13,-80 39,-103 21,-18 48,-28 79,-28 34,0 62,11 84,34 22,22 33,53 33,93 0,32 -5,57 -14,76 -10,18 -24,33 -42,43 -18,10 -39,15 -60,15 -35,0 -63,-11 -85,-34 -22,-22 -32,-55 -32,-97zm43 0c0,32 7,56 21,72 14,16 32,24 53,24 21,0 39,-8 53,-24 14,-16 21,-40 21,-73 0,-31 -7,-54 -21,-70 -14,-16 -32,-24 -52,-24 -21,0 -39,8 -53,24 -14,16 -21,40 -21,72z"/>
						<path id="3" class="fil2" d="M8870 10027l0 -123c-7,9 -16,17 -28,23 -12,6 -24,9 -38,9 -30,0 -55,-12 -77,-35 -21,-24 -32,-56 -32,-97 0,-25 4,-48 13,-67 9,-20 21,-35 38,-45 17,-10 35,-15 54,-15 31,0 55,13 73,39l0 -34 38 0 0 346 -42 0zm-131 -222c0,32 7,56 20,72 13,16 30,24 48,24 18,0 34,-8 47,-23 13,-15 20,-39 20,-70 0,-33 -7,-58 -21,-75 -14,-17 -30,-25 -48,-25 -18,0 -34,8 -47,23 -13,16 -19,40 -19,73z"/>
						<path id="4" class="fil2" d="M9142 9931l0 -37c-19,28 -46,42 -79,42 -15,0 -28,-3 -41,-8 -13,-6 -22,-13 -28,-21 -6,-9 -11,-19 -13,-31 -2,-8 -3,-22 -3,-40l0 -155 42 0 0 138c0,22 1,37 3,45 3,11 8,20 17,26 9,6 19,10 32,10 13,0 25,-3 36,-10 11,-7 19,-15 24,-27 5,-11 7,-27 7,-49l0 -134 42 0 0 250 -38 0z"/>
						<path id="5" class="fil2" d="M9417 9850l44 6c-7,25 -20,45 -38,59 -19,14 -42,21 -71,21 -36,0 -65,-11 -87,-34 -21,-22 -32,-54 -32,-94 0,-42 11,-75 32,-98 22,-23 50,-35 84,-35 33,0 61,11 82,34 21,23 32,55 32,96 0,2 0,6 0,11l-186 0c2,27 9,48 23,63 14,15 31,22 52,22 15,0 29,-4 40,-12 11,-8 20,-21 26,-39zm-139 -68l139 0c-2,-21 -7,-37 -16,-47 -13,-16 -31,-24 -52,-24 -19,0 -36,7 -49,20 -13,13 -20,30 -22,52z"/>
						<path id="6" class="fil2" d="M8296 10282c-18,-6 -31,-16 -39,-28 -8,-12 -13,-26 -13,-43 0,-25 9,-46 27,-63 18,-17 42,-26 72,-26 30,0 54,9 73,26 18,17 27,39 27,64 0,16 -4,30 -13,42 -8,12 -21,21 -38,27 21,7 37,18 48,33 11,15 17,34 17,55 0,29 -10,54 -31,74 -21,20 -48,30 -82,30 -34,0 -61,-10 -82,-30 -21,-20 -31,-45 -31,-75 0,-22 6,-41 17,-56 11,-15 28,-25 49,-31zm-8 -72c0,16 5,30 16,40 10,10 24,16 41,16 16,0 30,-5 40,-15 10,-10 15,-23 15,-38 0,-16 -5,-29 -16,-39 -11,-11 -24,-16 -40,-16 -16,0 -30,5 -40,16 -11,10 -16,23 -16,37zm-14 159c0,12 3,24 8,35 6,11 14,20 26,26 11,6 24,9 36,9 20,0 37,-7 50,-20 13,-13 20,-30 20,-50 0,-20 -7,-37 -20,-51 -13,-13 -31,-20 -51,-20 -20,0 -37,7 -50,20 -13,13 -20,30 -20,49z"/>
						<path id="7" class="fil2" d="M8642 10565l-5 -39c9,2 17,4 24,4 9,0 17,-2 23,-5 6,-3 10,-8 14,-13 3,-4 7,-15 13,-32 1,-2 2,-6 4,-10l-95 -251 45 0 52 144c7,18 13,37 18,58 5,-19 11,-38 17,-56l53 -146 42 0 -95 254c-10,27 -18,46 -24,57 -8,14 -16,24 -26,31 -10,6 -21,10 -35,10 -8,0 -17,-2 -27,-5z"/>
						<path id="8" class="fil2" d="M9013 10389l40 -3c3,19 10,33 20,42 10,9 22,13 37,13 13,0 24,-3 34,-9 10,-6 18,-14 24,-24 6,-10 11,-23 16,-40 4,-17 6,-34 6,-52 0,-2 0,-5 0,-9 -8,13 -20,24 -35,33 -15,8 -31,13 -48,13 -29,0 -53,-10 -72,-31 -20,-21 -30,-48 -30,-82 0,-35 10,-63 31,-84 21,-21 46,-32 77,-32 22,0 43,6 61,18 19,12 33,29 42,52 10,22 14,55 14,97 0,44 -5,79 -14,105 -10,26 -24,46 -43,60 -19,14 -41,20 -66,20 -27,0 -49,-7 -66,-22 -17,-15 -27,-36 -31,-63zm173 -152c0,-24 -6,-44 -19,-58 -13,-14 -28,-21 -47,-21 -19,0 -35,8 -49,23 -14,15 -21,35 -21,60 0,22 7,40 20,53 13,14 30,21 49,21 20,0 36,-7 48,-21 13,-14 19,-33 19,-57z"/>
					</g>
					<g id="plata5" class="diagrama-btn">
						<path id="rectangulo-plata5" class="fil6" d="M7474 752c-642,1721 -1015,3674 -1040,5745l3332 0c30,-1584 381,-3055 965,-4289l-3256 -1456z"/>
						<path class="fil2" d="M7778 3737l0 -345 129 0c26,0 47,3 63,10 16,7 28,18 37,32 9,14 14,30 14,46 0,15 -4,29 -12,42 -8,13 -20,24 -36,32 21,6 37,17 48,31 11,15 17,32 17,52 0,16 -3,31 -10,45 -7,14 -15,25 -25,32 -10,7 -23,13 -38,17 -15,4 -34,6 -56,6l-132 0zm46 -200l75 0c20,0 35,-1 44,-4 12,-3 20,-9 26,-17 6,-8 9,-18 9,-30 0,-11 -3,-22 -8,-30 -5,-9 -13,-15 -24,-18 -10,-3 -28,-5 -52,-5l-69 0 0 105zm0 159l86 0c15,0 25,-1 31,-2 10,-2 19,-5 26,-9 7,-4 13,-11 17,-19 5,-8 7,-18 7,-29 0,-13 -3,-24 -10,-34 -7,-10 -16,-16 -27,-20 -12,-4 -29,-6 -50,-6l-80 0 0 119z"/>
						<polygon id="1" class="fil2" points="8095,3737 8095,3392 8137,3392 8137,3737 "/>
						<path id="2" class="fil2" d="M8187 3612c0,-46 13,-80 39,-103 21,-18 48,-28 79,-28 34,0 62,11 84,34 22,22 33,53 33,93 0,32 -5,57 -14,76 -10,18 -24,33 -42,43 -18,10 -39,15 -60,15 -35,0 -63,-11 -85,-34 -22,-22 -32,-55 -32,-97zm43 0c0,32 7,56 21,72 14,16 32,24 53,24 21,0 39,-8 53,-24 14,-16 21,-40 21,-73 0,-31 -7,-54 -21,-70 -14,-16 -32,-24 -52,-24 -21,0 -39,8 -53,24 -14,16 -21,40 -21,72z"/>
						<path id="3" class="fil2" d="M8630 3833l0 -123c-7,9 -16,17 -28,23 -12,6 -24,9 -38,9 -30,0 -55,-12 -77,-35 -21,-24 -32,-56 -32,-97 0,-25 4,-48 13,-67 9,-20 21,-35 38,-45 17,-10 35,-15 54,-15 31,0 55,13 73,39l0 -34 38 0 0 346 -42 0zm-131 -222c0,32 7,56 20,72 13,16 30,24 48,24 18,0 34,-8 47,-23 13,-15 20,-39 20,-70 0,-33 -7,-58 -21,-75 -14,-17 -30,-25 -48,-25 -18,0 -34,8 -47,23 -13,16 -19,40 -19,73z"/>
						<path id="4" class="fil2" d="M8902 3737l0 -37c-19,28 -46,42 -79,42 -15,0 -28,-3 -41,-8 -13,-6 -22,-13 -28,-21 -6,-9 -11,-19 -13,-31 -2,-8 -3,-22 -3,-40l0 -155 42 0 0 138c0,22 1,37 3,45 3,11 8,20 17,26 9,6 19,10 32,10 13,0 25,-3 36,-10 11,-7 19,-15 24,-27 5,-11 7,-27 7,-49l0 -134 42 0 0 250 -38 0z"/>
						<path id="5" class="fil2" d="M9177 3656l44 6c-7,25 -20,45 -38,59 -19,14 -42,21 -71,21 -36,0 -65,-11 -87,-34 -21,-22 -32,-54 -32,-94 0,-42 11,-75 32,-98 22,-23 50,-35 84,-35 33,0 61,11 82,34 21,23 32,55 32,96 0,2 0,6 0,11l-186 0c2,27 9,48 23,63 14,15 31,22 52,22 15,0 29,-4 40,-12 11,-8 20,-21 26,-39zm-139 -68l139 0c-2,-21 -7,-37 -16,-47 -13,-16 -31,-24 -52,-24 -19,0 -36,7 -49,20 -13,13 -20,30 -22,52z"/>
						<path id="6" class="fil2" d="M7900 4275l-42 0 0 -270c-10,10 -24,20 -40,29 -17,10 -31,17 -45,22l0 -41c24,-11 44,-25 62,-40 18,-16 30,-31 38,-46l27 0 0 346z"/>
						<path id="7" class="fil2" d="M8009 4105c0,-41 4,-74 13,-99 8,-25 21,-44 37,-58 16,-13 37,-20 62,-20 18,0 35,4 49,11 14,7 26,18 35,32 9,14 16,31 21,51 5,20 8,47 8,81 0,40 -4,73 -12,98 -8,25 -21,44 -37,58 -16,13 -37,20 -63,20 -33,0 -59,-12 -78,-35 -23,-29 -34,-76 -34,-141zm43 0c0,57 7,94 20,113 13,19 30,28 49,28 19,0 36,-9 49,-28 13,-19 20,-56 20,-113 0,-57 -7,-95 -20,-113 -13,-19 -30,-28 -50,-28 -19,0 -35,8 -47,25 -15,21 -22,60 -22,116z"/>
						<path id="8" class="fil2" d="M8420 4371l-5 -39c9,2 17,4 24,4 9,0 17,-2 23,-5 6,-3 10,-8 14,-13 3,-4 7,-15 13,-32 1,-2 2,-6 4,-10l-95 -251 45 0 52 144c7,18 13,37 18,58 5,-19 11,-38 17,-56l53 -146 42 0 -95 254c-10,27 -18,46 -24,57 -8,14 -16,24 -26,31 -10,6 -21,10 -35,10 -8,0 -17,-2 -27,-5z"/>
						<path id="9" class="fil2" d="M8944 4275l-42 0 0 -270c-10,10 -24,20 -40,29 -17,10 -31,17 -45,22l0 -41c24,-11 44,-25 62,-40 18,-16 30,-31 38,-46l27 0 0 346z"/>
						<path id="10" class="fil2" d="M9176 4275l-42 0 0 -270c-10,10 -24,20 -40,29 -17,10 -31,17 -45,22l0 -41c24,-11 44,-25 62,-40 18,-16 30,-31 38,-46l27 0 0 346z"/>
					</g>
					<g id="oro1" class="diagrama-btn">
						<path id="rectangulo-oro1" class="fil5" d="M18436 3539c456,822 739,1844 773,2957l2115 0c-30,-1584 -381,-3055 -965,-4289l-2149 961c79,118 155,242 226,370z"/>
						<path class="fil2" d="M19261 4550l0 -345 129 0c26,0 47,3 63,10 16,7 28,18 37,32 9,14 14,30 14,46 0,15 -4,29 -12,42 -8,13 -20,24 -36,32 21,6 37,17 48,31 11,15 17,32 17,52 0,16 -3,31 -10,45 -7,14 -15,25 -25,32 -10,7 -23,13 -38,17 -15,4 -34,6 -56,6l-132 0zm46 -200l75 0c20,0 35,-1 44,-4 12,-3 20,-9 26,-17 6,-8 9,-18 9,-30 0,-11 -3,-22 -8,-30 -5,-9 -13,-15 -24,-18 -10,-3 -28,-5 -52,-5l-69 0 0 105zm0 159l86 0c15,0 25,-1 31,-2 10,-2 19,-5 26,-9 7,-4 13,-11 17,-19 5,-8 7,-18 7,-29 0,-13 -3,-24 -10,-34 -7,-10 -16,-16 -27,-20 -12,-4 -29,-6 -50,-6l-80 0 0 119z"/>
						<polygon id="1" class="fil2" points="19578,4550 19578,4205 19620,4205 19620,4550 "/>
						<path id="2" class="fil2" d="M19670 4425c0,-46 13,-80 39,-103 21,-18 48,-28 79,-28 34,0 62,11 84,34 22,22 33,53 33,93 0,32 -5,57 -14,76 -10,18 -24,33 -42,43 -18,10 -39,15 -60,15 -35,0 -63,-11 -85,-34 -22,-22 -32,-55 -32,-97zm43 0c0,32 7,56 21,72 14,16 32,24 53,24 21,0 39,-8 53,-24 14,-16 21,-40 21,-73 0,-31 -7,-54 -21,-70 -14,-16 -32,-24 -52,-24 -21,0 -39,8 -53,24 -14,16 -21,40 -21,72z"/>
						<path id="3" class="fil2" d="M20113 4646l0 -123c-7,9 -16,17 -28,23 -12,6 -24,9 -38,9 -30,0 -55,-12 -77,-35 -21,-24 -32,-56 -32,-97 0,-25 4,-48 13,-67 9,-20 21,-35 38,-45 17,-10 35,-15 54,-15 31,0 55,13 73,39l0 -34 38 0 0 346 -42 0zm-131 -222c0,32 7,56 20,72 13,16 30,24 48,24 18,0 34,-8 47,-23 13,-15 20,-39 20,-70 0,-33 -7,-58 -21,-75 -14,-17 -30,-25 -48,-25 -18,0 -34,8 -47,23 -13,16 -19,40 -19,73z"/>
						<path id="4" class="fil2" d="M20385 4550l0 -37c-19,28 -46,42 -79,42 -15,0 -28,-3 -41,-8 -13,-6 -22,-13 -28,-21 -6,-9 -11,-19 -13,-31 -2,-8 -3,-22 -3,-40l0 -155 42 0 0 138c0,22 1,37 3,45 3,11 8,20 17,26 9,6 19,10 32,10 13,0 25,-3 36,-10 11,-7 19,-15 24,-27 5,-11 7,-27 7,-49l0 -134 42 0 0 250 -38 0z"/>
						<path id="5" class="fil2" d="M20660 4469l44 6c-7,25 -20,45 -38,59 -19,14 -42,21 -71,21 -36,0 -65,-11 -87,-34 -21,-22 -32,-54 -32,-94 0,-42 11,-75 32,-98 22,-23 50,-35 84,-35 33,0 61,11 82,34 21,23 32,55 32,96 0,2 0,6 0,11l-186 0c2,27 9,48 23,63 14,15 31,22 52,22 15,0 29,-4 40,-12 11,-8 20,-21 26,-39zm-139 -68l139 0c-2,-21 -7,-37 -16,-47 -13,-16 -31,-24 -52,-24 -19,0 -36,7 -49,20 -13,13 -20,30 -22,52z"/>
						<path id="6" class="fil2" d="M19633 5088l-42 0 0 -270c-10,10 -24,20 -40,29 -17,10 -31,17 -45,22l0 -41c24,-11 44,-25 62,-40 18,-16 30,-31 38,-46l27 0 0 346z"/>
						<path id="7" class="fil2" d="M19885 5185l-5 -39c9,2 17,4 24,4 9,0 17,-2 23,-5 6,-3 10,-8 14,-13 3,-4 7,-15 13,-32 1,-2 2,-6 4,-10l-95 -251 45 0 52 144c7,18 13,37 18,58 5,-19 11,-38 17,-56l53 -146 42 0 -95 254c-10,27 -18,46 -24,57 -8,14 -16,24 -26,31 -10,6 -21,10 -35,10 -8,0 -17,-2 -27,-5z"/>
						<path id="8" class="fil2" d="M20472 5048l0 40 -228 0c0,-10 1,-20 5,-29 6,-15 15,-31 28,-46 13,-15 31,-32 55,-52 37,-31 63,-55 76,-73 13,-18 20,-35 20,-51 0,-17 -6,-31 -18,-42 -12,-11 -28,-17 -47,-17 -20,0 -37,6 -49,18 -12,12 -18,29 -19,51l-43 -4c3,-32 14,-57 34,-74 20,-17 46,-26 78,-26 33,0 59,9 79,28 19,18 29,41 29,68 0,14 -3,27 -9,41 -6,13 -15,27 -28,42 -13,15 -35,35 -65,61 -25,21 -42,36 -49,43 -7,8 -13,15 -18,23l169 0z"/>
					</g>
					<g id="oro2" class="diagrama-btn">
						<path id="rectangulo-oro2" class="fil5" d="M20237 11481c656,-1283 1054,-2845 1087,-4537l-2115 0c-26,871 -205,1686 -501,2393l1529 2143z"/>
						<path class="fil2" d="M19261 8631l0 -345 129 0c26,0 47,3 63,10 16,7 28,18 37,32 9,14 14,30 14,46 0,15 -4,29 -12,42 -8,13 -20,24 -36,32 21,6 37,17 48,31 11,15 17,32 17,52 0,16 -3,31 -10,45 -7,14 -15,25 -25,32 -10,7 -23,13 -38,17 -15,4 -34,6 -56,6l-132 0zm46 -200l75 0c20,0 35,-1 44,-4 12,-3 20,-9 26,-17 6,-8 9,-18 9,-30 0,-11 -3,-22 -8,-30 -5,-9 -13,-15 -24,-18 -10,-3 -28,-5 -52,-5l-69 0 0 105zm0 159l86 0c15,0 25,-1 31,-2 10,-2 19,-5 26,-9 7,-4 13,-11 17,-19 5,-8 7,-18 7,-29 0,-13 -3,-24 -10,-34 -7,-10 -16,-16 -27,-20 -12,-4 -29,-6 -50,-6l-80 0 0 119z"/>
						<polygon id="1" class="fil2" points="19578,8631 19578,8286 19620,8286 19620,8631 "/>
						<path id="2" class="fil2" d="M19670 8506c0,-46 13,-80 39,-103 21,-18 48,-28 79,-28 34,0 62,11 84,34 22,22 33,53 33,93 0,32 -5,57 -14,76 -10,18 -24,33 -42,43 -18,10 -39,15 -60,15 -35,0 -63,-11 -85,-34 -22,-22 -32,-55 -32,-97zm43 0c0,32 7,56 21,72 14,16 32,24 53,24 21,0 39,-8 53,-24 14,-16 21,-40 21,-73 0,-31 -7,-54 -21,-70 -14,-16 -32,-24 -52,-24 -21,0 -39,8 -53,24 -14,16 -21,40 -21,72z"/>
						<path id="3" class="fil2" d="M20113 8727l0 -123c-7,9 -16,17 -28,23 -12,6 -24,9 -38,9 -30,0 -55,-12 -77,-35 -21,-24 -32,-56 -32,-97 0,-25 4,-48 13,-67 9,-20 21,-35 38,-45 17,-10 35,-15 54,-15 31,0 55,13 73,39l0 -34 38 0 0 346 -42 0zm-131 -222c0,32 7,56 20,72 13,16 30,24 48,24 18,0 34,-8 47,-23 13,-15 20,-39 20,-70 0,-33 -7,-58 -21,-75 -14,-17 -30,-25 -48,-25 -18,0 -34,8 -47,23 -13,16 -19,40 -19,73z"/>
						<path id="4" class="fil2" d="M20385 8631l0 -37c-19,28 -46,42 -79,42 -15,0 -28,-3 -41,-8 -13,-6 -22,-13 -28,-21 -6,-9 -11,-19 -13,-31 -2,-8 -3,-22 -3,-40l0 -155 42 0 0 138c0,22 1,37 3,45 3,11 8,20 17,26 9,6 19,10 32,10 13,0 25,-3 36,-10 11,-7 19,-15 24,-27 5,-11 7,-27 7,-49l0 -134 42 0 0 250 -38 0z"/>
						<path id="5" class="fil2" d="M20660 8550l44 6c-7,25 -20,45 -38,59 -19,14 -42,21 -71,21 -36,0 -65,-11 -87,-34 -21,-22 -32,-54 -32,-94 0,-42 11,-75 32,-98 22,-23 50,-35 84,-35 33,0 61,11 82,34 21,23 32,55 32,96 0,2 0,6 0,11l-186 0c2,27 9,48 23,63 14,15 31,22 52,22 15,0 29,-4 40,-12 11,-8 20,-21 26,-39zm-139 -68l139 0c-2,-21 -7,-37 -16,-47 -13,-16 -31,-24 -52,-24 -19,0 -36,7 -49,20 -13,13 -20,30 -22,52z"/>
						<path id="6" class="fil2" d="M19474 9078l42 -6c5,24 13,41 25,52 12,11 26,16 43,16 20,0 37,-7 51,-21 14,-14 20,-31 20,-51 0,-19 -6,-35 -19,-48 -13,-13 -29,-19 -48,-19 -8,0 -18,2 -30,5l5 -37c3,0 5,0 7,0 18,0 34,-5 49,-14 14,-9 22,-24 22,-43 0,-15 -5,-28 -16,-39 -11,-10 -24,-15 -41,-15 -17,0 -30,5 -41,16 -11,10 -18,26 -21,47l-42 -8c5,-28 17,-51 35,-66 18,-16 41,-23 68,-23 19,0 36,4 52,12 16,8 28,19 36,33 8,14 13,29 13,44 0,15 -4,28 -12,41 -8,12 -20,22 -36,29 20,5 36,14 48,29 11,15 17,33 17,56 0,30 -11,56 -33,77 -22,21 -50,31 -83,31 -30,0 -55,-9 -75,-27 -20,-18 -31,-41 -34,-70z"/>
						<path id="7" class="fil2" d="M19885 9266l-5 -39c9,2 17,4 24,4 9,0 17,-2 23,-5 6,-3 10,-8 14,-13 3,-4 7,-15 13,-32 1,-2 2,-6 4,-10l-95 -251 45 0 52 144c7,18 13,37 18,58 5,-19 11,-38 17,-56l53 -146 42 0 -95 254c-10,27 -18,46 -24,57 -8,14 -16,24 -26,31 -10,6 -21,10 -35,10 -8,0 -17,-2 -27,-5z"/>
						<path id="8" class="fil2" d="M20385 9170l0 -82 -150 0 0 -39 158 -224 35 0 0 224 47 0 0 39 -47 0 0 82 -42 0zm0 -121l0 -155 -108 155 108 0z"/>
					</g>
					<g id="oro3" class="diagrama-btn">
						<path id="rectangulo-oro3" class="fil5" d="M11091 11916c1060,1803 2662,2952 4454,2952 1792,0 3393,-1149 4454,-2953l-1508 -2114c-118,224 -249,435 -392,629 -215,294 -455,551 -716,764 -540,442 -1168,695 -1838,695 -670,0 -1298,-253 -1838,-695 -261,-213 -501,-470 -716,-764 -142,-194 -273,-405 -391,-629l-1508 2114z"/>
						<path class="fil2" d="M14821 13221l0 -345 129 0c26,0 47,3 63,10 16,7 28,18 37,32 9,14 14,30 14,46 0,15 -4,29 -12,42 -8,13 -20,24 -36,32 21,6 37,17 48,31 11,15 17,32 17,52 0,16 -3,31 -10,45 -7,14 -15,25 -25,32 -10,7 -23,13 -38,17 -15,4 -34,6 -56,6l-132 0zm46 -200l75 0c20,0 35,-1 44,-4 12,-3 20,-9 26,-17 6,-8 9,-18 9,-30 0,-11 -3,-22 -8,-30 -5,-9 -13,-15 -24,-18 -10,-3 -28,-5 -52,-5l-69 0 0 105zm0 159l86 0c15,0 25,-1 31,-2 10,-2 19,-5 26,-9 7,-4 13,-11 17,-19 5,-8 7,-18 7,-29 0,-13 -3,-24 -10,-34 -7,-10 -16,-16 -27,-20 -12,-4 -29,-6 -50,-6l-80 0 0 119z"/>
						<polygon id="1" class="fil2" points="15138,13221 15138,12876 15180,12876 15180,13221 "/>
						<path id="2" class="fil2" d="M15230 13096c0,-46 13,-80 39,-103 21,-18 48,-28 79,-28 34,0 62,11 84,34 22,22 33,53 33,93 0,32 -5,57 -14,76 -10,18 -24,33 -42,43 -18,10 -39,15 -60,15 -35,0 -63,-11 -85,-34 -22,-22 -32,-55 -32,-97zm43 0c0,32 7,56 21,72 14,16 32,24 53,24 21,0 39,-8 53,-24 14,-16 21,-40 21,-73 0,-31 -7,-54 -21,-70 -14,-16 -32,-24 -52,-24 -21,0 -39,8 -53,24 -14,16 -21,40 -21,72z"/>
						<path id="3" class="fil2" d="M15673 13317l0 -123c-7,9 -16,17 -28,23 -12,6 -24,9 -38,9 -30,0 -55,-12 -77,-35 -21,-24 -32,-56 -32,-97 0,-25 4,-48 13,-67 9,-20 21,-35 38,-45 17,-10 35,-15 54,-15 31,0 55,13 73,39l0 -34 38 0 0 346 -42 0zm-131 -222c0,32 7,56 20,72 13,16 30,24 48,24 18,0 34,-8 47,-23 13,-15 20,-39 20,-70 0,-33 -7,-58 -21,-75 -14,-17 -30,-25 -48,-25 -18,0 -34,8 -47,23 -13,16 -19,40 -19,73z"/>
						<path id="4" class="fil2" d="M15945 13221l0 -37c-19,28 -46,42 -79,42 -15,0 -28,-3 -41,-8 -13,-6 -22,-13 -28,-21 -6,-9 -11,-19 -13,-31 -2,-8 -3,-22 -3,-40l0 -155 42 0 0 138c0,22 1,37 3,45 3,11 8,20 17,26 9,6 19,10 32,10 13,0 25,-3 36,-10 11,-7 19,-15 24,-27 5,-11 7,-27 7,-49l0 -134 42 0 0 250 -38 0z"/>
						<path id="5" class="fil2" d="M16220 13140l44 6c-7,25 -20,45 -38,59 -19,14 -42,21 -71,21 -36,0 -65,-11 -87,-34 -21,-22 -32,-54 -32,-94 0,-42 11,-75 32,-98 22,-23 50,-35 84,-35 33,0 61,11 82,34 21,23 32,55 32,96 0,2 0,6 0,11l-186 0c2,27 9,48 23,63 14,15 31,22 52,22 15,0 29,-4 40,-12 11,-8 20,-21 26,-39zm-139 -68l139 0c-2,-21 -7,-37 -16,-47 -13,-16 -31,-24 -52,-24 -19,0 -36,7 -49,20 -13,13 -20,30 -22,52z"/>
						<path id="6" class="fil2" d="M14766 13669l44 -3c3,22 11,38 23,49 12,11 26,16 44,16 21,0 38,-8 52,-23 14,-15 21,-36 21,-61 0,-24 -7,-43 -20,-57 -13,-14 -31,-21 -53,-21 -14,0 -26,3 -37,9 -11,6 -19,14 -26,24l-40 -6 33 -177 171 0 0 40 -137 0 -18 93c21,-15 42,-22 65,-22 30,0 55,10 76,31 21,21 31,48 31,80 0,31 -9,58 -27,81 -22,28 -52,42 -90,42 -31,0 -57,-9 -77,-26 -20,-18 -31,-41 -34,-70z"/>
						<path id="7" class="fil2" d="M15057 13759l0 -48 48 0 0 48c0,18 -3,32 -9,43 -6,11 -16,19 -30,25l-12 -18c9,-4 16,-10 20,-17 4,-8 7,-19 7,-33l-24 0z"/>
						<path id="8" class="fil2" d="M15522 13499l-42 3c-4,-17 -9,-29 -16,-36 -11,-12 -26,-18 -43,-18 -14,0 -26,4 -36,11 -13,10 -24,24 -32,42 -8,19 -12,45 -12,80 10,-15 23,-27 37,-35 15,-8 30,-11 46,-11 28,0 52,10 72,31 20,21 30,48 30,81 0,22 -5,42 -14,60 -9,19 -22,33 -39,43 -16,10 -35,15 -56,15 -35,0 -64,-13 -86,-39 -22,-26 -33,-69 -33,-128 0,-67 12,-115 37,-145 22,-26 50,-40 87,-40 27,0 49,8 67,23 17,15 28,36 31,63zm-173 149c0,15 3,29 9,42 6,13 15,23 26,30 11,7 23,11 35,11 18,0 33,-7 46,-22 13,-14 19,-34 19,-59 0,-24 -6,-43 -19,-56 -13,-14 -29,-21 -48,-21 -19,0 -35,7 -49,21 -13,14 -20,32 -20,54z"/>
						<path id="9" class="fil2" d="M15713 13856l-5 -39c9,2 17,4 24,4 9,0 17,-2 23,-5 6,-3 10,-8 14,-13 3,-4 7,-15 13,-32 1,-2 2,-6 4,-10l-95 -251 45 0 52 144c7,18 13,37 18,58 5,-19 11,-38 17,-56l53 -146 42 0 -95 254c-10,27 -18,46 -24,57 -8,14 -16,24 -26,31 -10,6 -21,10 -35,10 -8,0 -17,-2 -27,-5z"/>
						<path id="10" class="fil2" d="M16080 13459l0 -40 223 0 0 33c-22,23 -44,54 -65,93 -22,39 -38,79 -50,120 -8,29 -14,61 -16,95l-43 0c0,-27 6,-60 16,-98 10,-39 25,-76 44,-111 19,-36 39,-66 61,-90l-169 0z"/>
					</g>
					<g id="oro4" class="diagrama-btn">
						<path id="rectangulo-oro4" class="fil5" d="M9765 6944c32,1691 430,3254 1087,4537l1529 -2143c-295,-707 -474,-1523 -501,-2394l-2115 0z"/>
						<path class="fil2" d="M10384 8631l0 -345 129 0c26,0 47,3 63,10 16,7 28,18 37,32 9,14 14,30 14,46 0,15 -4,29 -12,42 -8,13 -20,24 -36,32 21,6 37,17 48,31 11,15 17,32 17,52 0,16 -3,31 -10,45 -7,14 -15,25 -25,32 -10,7 -23,13 -38,17 -15,4 -34,6 -56,6l-132 0zm46 -200l75 0c20,0 35,-1 44,-4 12,-3 20,-9 26,-17 6,-8 9,-18 9,-30 0,-11 -3,-22 -8,-30 -5,-9 -13,-15 -24,-18 -10,-3 -28,-5 -52,-5l-69 0 0 105zm0 159l86 0c15,0 25,-1 31,-2 10,-2 19,-5 26,-9 7,-4 13,-11 17,-19 5,-8 7,-18 7,-29 0,-13 -3,-24 -10,-34 -7,-10 -16,-16 -27,-20 -12,-4 -29,-6 -50,-6l-80 0 0 119z"/>
						<polygon id="1" class="fil2" points="10701,8631 10701,8286 10743,8286 10743,8631 "/>
						<path id="2" class="fil2" d="M10793 8506c0,-46 13,-80 39,-103 21,-18 48,-28 79,-28 34,0 62,11 84,34 22,22 33,53 33,93 0,32 -5,57 -14,76 -10,18 -24,33 -42,43 -18,10 -39,15 -60,15 -35,0 -63,-11 -85,-34 -22,-22 -32,-55 -32,-97zm43 0c0,32 7,56 21,72 14,16 32,24 53,24 21,0 39,-8 53,-24 14,-16 21,-40 21,-73 0,-31 -7,-54 -21,-70 -14,-16 -32,-24 -52,-24 -21,0 -39,8 -53,24 -14,16 -21,40 -21,72z"/>
						<path id="3" class="fil2" d="M11236 8727l0 -123c-7,9 -16,17 -28,23 -12,6 -24,9 -38,9 -30,0 -55,-12 -77,-35 -21,-24 -32,-56 -32,-97 0,-25 4,-48 13,-67 9,-20 21,-35 38,-45 17,-10 35,-15 54,-15 31,0 55,13 73,39l0 -34 38 0 0 346 -42 0zm-131 -222c0,32 7,56 20,72 13,16 30,24 48,24 18,0 34,-8 47,-23 13,-15 20,-39 20,-70 0,-33 -7,-58 -21,-75 -14,-17 -30,-25 -48,-25 -18,0 -34,8 -47,23 -13,16 -19,40 -19,73z"/>
						<path id="4" class="fil2" d="M11508 8631l0 -37c-19,28 -46,42 -79,42 -15,0 -28,-3 -41,-8 -13,-6 -22,-13 -28,-21 -6,-9 -11,-19 -13,-31 -2,-8 -3,-22 -3,-40l0 -155 42 0 0 138c0,22 1,37 3,45 3,11 8,20 17,26 9,6 19,10 32,10 13,0 25,-3 36,-10 11,-7 19,-15 24,-27 5,-11 7,-27 7,-49l0 -134 42 0 0 250 -38 0z"/>
						<path id="5" class="fil2" d="M11783 8550l44 6c-7,25 -20,45 -38,59 -19,14 -42,21 -71,21 -36,0 -65,-11 -87,-34 -21,-22 -32,-54 -32,-94 0,-42 11,-75 32,-98 22,-23 50,-35 84,-35 33,0 61,11 82,34 21,23 32,55 32,96 0,2 0,6 0,11l-186 0c2,27 9,48 23,63 14,15 31,22 52,22 15,0 29,-4 40,-12 11,-8 20,-21 26,-39zm-139 -68l139 0c-2,-21 -7,-37 -16,-47 -13,-16 -31,-24 -52,-24 -19,0 -36,7 -49,20 -13,13 -20,30 -22,52z"/>
						<path id="6" class="fil2" d="M10662 8983c-18,-6 -31,-16 -39,-28 -8,-12 -13,-26 -13,-43 0,-25 9,-46 27,-63 18,-17 42,-26 72,-26 30,0 54,9 73,26 18,17 27,39 27,64 0,16 -4,30 -13,42 -8,12 -21,21 -38,27 21,7 37,18 48,33 11,15 17,34 17,55 0,29 -10,54 -31,74 -21,20 -48,30 -82,30 -34,0 -61,-10 -82,-30 -21,-20 -31,-45 -31,-75 0,-22 6,-41 17,-56 11,-15 28,-25 49,-31zm-8 -72c0,16 5,30 16,40 10,10 24,16 41,16 16,0 30,-5 40,-15 10,-10 15,-23 15,-38 0,-16 -5,-29 -16,-39 -11,-11 -24,-16 -40,-16 -16,0 -30,5 -40,16 -11,10 -16,23 -16,37zm-14 159c0,12 3,24 8,35 6,11 14,20 26,26 11,6 24,9 36,9 20,0 37,-7 50,-20 13,-13 20,-30 20,-50 0,-20 -7,-37 -20,-51 -13,-13 -31,-20 -51,-20 -20,0 -37,7 -50,20 -13,13 -20,30 -20,49z"/>
						<path id="7" class="fil2" d="M11008 9266l-5 -39c9,2 17,4 24,4 9,0 17,-2 23,-5 6,-3 10,-8 14,-13 3,-4 7,-15 13,-32 1,-2 2,-6 4,-10l-95 -251 45 0 52 144c7,18 13,37 18,58 5,-19 11,-38 17,-56l53 -146 42 0 -95 254c-10,27 -18,46 -24,57 -8,14 -16,24 -26,31 -10,6 -21,10 -35,10 -8,0 -17,-2 -27,-5z"/>
						<path id="8" class="fil2" d="M11379 9090l40 -3c3,19 10,33 20,42 10,9 22,13 37,13 13,0 24,-3 34,-9 10,-6 18,-14 24,-24 6,-10 11,-23 16,-40 4,-17 6,-34 6,-52 0,-2 0,-5 0,-9 -8,13 -20,24 -35,33 -15,8 -31,13 -48,13 -29,0 -53,-10 -72,-31 -20,-21 -30,-48 -30,-82 0,-35 10,-63 31,-84 21,-21 46,-32 77,-32 22,0 43,6 61,18 19,12 33,29 42,52 10,22 14,55 14,97 0,44 -5,79 -14,105 -10,26 -24,46 -43,60 -19,14 -41,20 -66,20 -27,0 -49,-7 -66,-22 -17,-15 -27,-36 -31,-63zm173 -152c0,-24 -6,-44 -19,-58 -13,-14 -28,-21 -47,-21 -19,0 -35,8 -49,23 -14,15 -21,35 -21,60 0,22 7,40 20,53 13,14 30,21 49,21 20,0 36,-7 48,-21 13,-14 19,-33 19,-57z"/>
					</g>
					<g id="oro5" class="diagrama-btn">
						<path id="rectangulo-oro5" class="fil5" d="M10730 2208c-583,1234 -934,2705 -965,4289l2115 0c34,-1113 317,-2135 773,-2957 71,-128 147,-252 226,-370l-2149 -961z"/>
						<path class="fil2" d="M10603 4550l0 -345 129 0c26,0 47,3 63,10 16,7 28,18 37,32 9,14 14,30 14,46 0,15 -4,29 -12,42 -8,13 -20,24 -36,32 21,6 37,17 48,31 11,15 17,32 17,52 0,16 -3,31 -10,45 -7,14 -15,25 -25,32 -10,7 -23,13 -38,17 -15,4 -34,6 -56,6l-132 0zm46 -200l75 0c20,0 35,-1 44,-4 12,-3 20,-9 26,-17 6,-8 9,-18 9,-30 0,-11 -3,-22 -8,-30 -5,-9 -13,-15 -24,-18 -10,-3 -28,-5 -52,-5l-69 0 0 105zm0 159l86 0c15,0 25,-1 31,-2 10,-2 19,-5 26,-9 7,-4 13,-11 17,-19 5,-8 7,-18 7,-29 0,-13 -3,-24 -10,-34 -7,-10 -16,-16 -27,-20 -12,-4 -29,-6 -50,-6l-80 0 0 119z"/>
						<polygon id="1" class="fil2" points="10919,4550 10919,4205 10962,4205 10962,4550 "/>
						<path id="2" class="fil2" d="M11012 4425c0,-46 13,-80 39,-103 21,-18 48,-28 79,-28 34,0 62,11 84,34 22,22 33,53 33,93 0,32 -5,57 -14,76 -10,18 -24,33 -42,43 -18,10 -39,15 -60,15 -35,0 -63,-11 -85,-34 -22,-22 -32,-55 -32,-97zm43 0c0,32 7,56 21,72 14,16 32,24 53,24 21,0 39,-8 53,-24 14,-16 21,-40 21,-73 0,-31 -7,-54 -21,-70 -14,-16 -32,-24 -52,-24 -21,0 -39,8 -53,24 -14,16 -21,40 -21,72z"/>
						<path id="3" class="fil2" d="M11455 4646l0 -123c-7,9 -16,17 -28,23 -12,6 -24,9 -38,9 -30,0 -55,-12 -77,-35 -21,-24 -32,-56 -32,-97 0,-25 4,-48 13,-67 9,-20 21,-35 38,-45 17,-10 35,-15 54,-15 31,0 55,13 73,39l0 -34 38 0 0 346 -42 0zm-131 -222c0,32 7,56 20,72 13,16 30,24 48,24 18,0 34,-8 47,-23 13,-15 20,-39 20,-70 0,-33 -7,-58 -21,-75 -14,-17 -30,-25 -48,-25 -18,0 -34,8 -47,23 -13,16 -19,40 -19,73z"/>
						<path id="4" class="fil2" d="M11727 4550l0 -37c-19,28 -46,42 -79,42 -15,0 -28,-3 -41,-8 -13,-6 -22,-13 -28,-21 -6,-9 -11,-19 -13,-31 -2,-8 -3,-22 -3,-40l0 -155 42 0 0 138c0,22 1,37 3,45 3,11 8,20 17,26 9,6 19,10 32,10 13,0 25,-3 36,-10 11,-7 19,-15 24,-27 5,-11 7,-27 7,-49l0 -134 42 0 0 250 -38 0z"/>
						<path id="5" class="fil2" d="M12002 4469l44 6c-7,25 -20,45 -38,59 -19,14 -42,21 -71,21 -36,0 -65,-11 -87,-34 -21,-22 -32,-54 -32,-94 0,-42 11,-75 32,-98 22,-23 50,-35 84,-35 33,0 61,11 82,34 21,23 32,55 32,96 0,2 0,6 0,11l-186 0c2,27 9,48 23,63 14,15 31,22 52,22 15,0 29,-4 40,-12 11,-8 20,-21 26,-39zm-139 -68l139 0c-2,-21 -7,-37 -16,-47 -13,-16 -31,-24 -52,-24 -19,0 -36,7 -49,20 -13,13 -20,30 -22,52z"/>
						<path id="6" class="fil2" d="M10724 5088l-42 0 0 -270c-10,10 -24,20 -40,29 -17,10 -31,17 -45,22l0 -41c24,-11 44,-25 62,-40 18,-16 30,-31 38,-46l27 0 0 346z"/>
						<path id="7" class="fil2" d="M10833 4918c0,-41 4,-74 13,-99 8,-25 21,-44 37,-58 16,-13 37,-20 62,-20 18,0 35,4 49,11 14,7 26,18 35,32 9,14 16,31 21,51 5,20 8,47 8,81 0,40 -4,73 -12,98 -8,25 -21,44 -37,58 -16,13 -37,20 -63,20 -33,0 -59,-12 -78,-35 -23,-29 -34,-76 -34,-141zm43 0c0,57 7,94 20,113 13,19 30,28 49,28 19,0 36,-9 49,-28 13,-19 20,-56 20,-113 0,-57 -7,-95 -20,-113 -13,-19 -30,-28 -50,-28 -19,0 -35,8 -47,25 -15,21 -22,60 -22,116z"/>
						<path id="8" class="fil2" d="M11245 5185l-5 -39c9,2 17,4 24,4 9,0 17,-2 23,-5 6,-3 10,-8 14,-13 3,-4 7,-15 13,-32 1,-2 2,-6 4,-10l-95 -251 45 0 52 144c7,18 13,37 18,58 5,-19 11,-38 17,-56l53 -146 42 0 -95 254c-10,27 -18,46 -24,57 -8,14 -16,24 -26,31 -10,6 -21,10 -35,10 -8,0 -17,-2 -27,-5z"/>
						<path id="9" class="fil2" d="M11769 5088l-42 0 0 -270c-10,10 -24,20 -40,29 -17,10 -31,17 -45,22l0 -41c24,-11 44,-25 62,-40 18,-16 30,-31 38,-46l27 0 0 346z"/>
						<path id="10" class="fil2" d="M12001 5088l-42 0 0 -270c-10,10 -24,20 -40,29 -17,10 -31,17 -45,22l0 -41c24,-11 44,-25 62,-40 18,-16 30,-31 38,-46l27 0 0 346z"/>
					</g>
					<g id="diamante1" class="diagrama-btn">
						<path id="rectangulo-diamante1" class="fil3" d="M17383 3539l0 6891 522 0c721,-913 1175,-2237 1175,-3710 0,-1209 -305,-2318 -813,-3181l-883 0z"/>
						<path class="fil7" d="M17501 6408l0 -345 129 0c26,0 47,3 63,10 16,7 28,18 37,32 9,14 14,30 14,46 0,15 -4,29 -12,42 -8,13 -20,24 -36,32 21,6 37,17 48,31 11,15 17,32 17,52 0,16 -3,31 -10,45 -7,14 -15,25 -25,32 -10,7 -23,13 -38,17 -15,4 -34,6 -56,6l-132 0zm46 -200l75 0c20,0 35,-1 44,-4 12,-3 20,-9 26,-17 6,-8 9,-18 9,-30 0,-11 -3,-22 -8,-30 -5,-9 -13,-15 -24,-18 -10,-3 -28,-5 -52,-5l-69 0 0 105zm0 159l86 0c15,0 25,-1 31,-2 10,-2 19,-5 26,-9 7,-4 13,-11 17,-19 5,-8 7,-18 7,-29 0,-13 -3,-24 -10,-34 -7,-10 -16,-16 -27,-20 -12,-4 -29,-6 -50,-6l-80 0 0 119z"/>
						<polygon id="1" class="fil7" points="17818,6408 17818,6063 17860,6063 17860,6408 "/>
						<path id="2" class="fil7" d="M17910 6283c0,-46 13,-80 39,-103 21,-18 48,-28 79,-28 34,0 62,11 84,34 22,22 33,53 33,93 0,32 -5,57 -14,76 -10,18 -24,33 -42,43 -18,10 -39,15 -60,15 -35,0 -63,-11 -85,-34 -22,-22 -32,-55 -32,-97zm43 0c0,32 7,56 21,72 14,16 32,24 53,24 21,0 39,-8 53,-24 14,-16 21,-40 21,-73 0,-31 -7,-54 -21,-70 -14,-16 -32,-24 -52,-24 -21,0 -39,8 -53,24 -14,16 -21,40 -21,72z"/>
						<path id="3" class="fil7" d="M18353 6504l0 -123c-7,9 -16,17 -28,23 -12,6 -24,9 -38,9 -30,0 -55,-12 -77,-35 -21,-24 -32,-56 -32,-97 0,-25 4,-48 13,-67 9,-20 21,-35 38,-45 17,-10 35,-15 54,-15 31,0 55,13 73,39l0 -34 38 0 0 346 -42 0zm-131 -222c0,32 7,56 20,72 13,16 30,24 48,24 18,0 34,-8 47,-23 13,-15 20,-39 20,-70 0,-33 -7,-58 -21,-75 -14,-17 -30,-25 -48,-25 -18,0 -34,8 -47,23 -13,16 -19,40 -19,73z"/>
						<path id="4" class="fil7" d="M18625 6408l0 -37c-19,28 -46,42 -79,42 -15,0 -28,-3 -41,-8 -13,-6 -22,-13 -28,-21 -6,-9 -11,-19 -13,-31 -2,-8 -3,-22 -3,-40l0 -155 42 0 0 138c0,22 1,37 3,45 3,11 8,20 17,26 9,6 19,10 32,10 13,0 25,-3 36,-10 11,-7 19,-15 24,-27 5,-11 7,-27 7,-49l0 -134 42 0 0 250 -38 0z"/>
						<path id="5" class="fil7" d="M18900 6327l44 6c-7,25 -20,45 -38,59 -19,14 -42,21 -71,21 -36,0 -65,-11 -87,-34 -21,-22 -32,-54 -32,-94 0,-42 11,-75 32,-98 22,-23 50,-35 84,-35 33,0 61,11 82,34 21,23 32,55 32,96 0,2 0,6 0,11l-186 0c2,27 9,48 23,63 14,15 31,22 52,22 15,0 29,-4 40,-12 11,-8 20,-21 26,-39zm-139 -68l139 0c-2,-21 -7,-37 -16,-47 -13,-16 -31,-24 -52,-24 -19,0 -36,7 -49,20 -13,13 -20,30 -22,52z"/>
						<path id="6" class="fil7" d="M17605 6947l-42 0 0 -270c-10,10 -24,20 -40,29 -17,10 -31,17 -45,22l0 -41c24,-11 44,-25 62,-40 18,-16 30,-31 38,-46l27 0 0 346z"/>
						<path id="7" class="fil7" d="M17737 6947l0 -48 48 0 0 48c0,18 -3,32 -9,43 -6,11 -16,19 -30,25l-12 -18c9,-4 16,-10 20,-17 4,-8 7,-19 7,-33l-24 0z"/>
						<path id="8" class="fil7" d="M18204 6906l0 40 -228 0c0,-10 1,-20 5,-29 6,-15 15,-31 28,-46 13,-15 31,-32 55,-52 37,-31 63,-55 76,-73 13,-18 20,-35 20,-51 0,-17 -6,-31 -18,-42 -12,-11 -28,-17 -47,-17 -20,0 -37,6 -49,18 -12,12 -18,29 -19,51l-43 -4c3,-32 14,-57 34,-74 20,-17 46,-26 78,-26 33,0 59,9 79,28 19,18 29,41 29,68 0,14 -3,27 -9,41 -6,13 -15,27 -28,42 -13,15 -35,35 -65,61 -25,21 -42,36 -49,43 -7,8 -13,15 -18,23l169 0z"/>
						<path id="9" class="fil7" d="M18393 7043l-5 -39c9,2 17,4 24,4 9,0 17,-2 23,-5 6,-3 10,-8 14,-13 3,-4 7,-15 13,-32 1,-2 2,-6 4,-10l-95 -251 45 0 52 144c7,18 13,37 18,58 5,-19 11,-38 17,-56l53 -146 42 0 -95 254c-10,27 -18,46 -24,57 -8,14 -16,24 -26,31 -10,6 -21,10 -35,10 -8,0 -17,-2 -27,-5z"/>
						<path id="10" class="fil7" d="M18758 6855l42 -6c5,24 13,41 25,52 12,11 26,16 43,16 20,0 37,-7 51,-21 14,-14 20,-31 20,-51 0,-19 -6,-35 -19,-48 -13,-13 -29,-19 -48,-19 -8,0 -18,2 -30,5l5 -37c3,0 5,0 7,0 18,0 34,-5 49,-14 14,-9 22,-24 22,-43 0,-15 -5,-28 -16,-39 -11,-10 -24,-15 -41,-15 -17,0 -30,5 -41,16 -11,10 -18,26 -21,47l-42 -8c5,-28 17,-51 35,-66 18,-16 41,-23 68,-23 19,0 36,4 52,12 16,8 28,19 36,33 8,14 13,29 13,44 0,15 -4,28 -12,41 -8,12 -20,22 -36,29 20,5 36,14 48,29 11,15 17,33 17,56 0,30 -11,56 -33,77 -22,21 -50,31 -83,31 -30,0 -55,-9 -75,-27 -20,-18 -31,-41 -34,-70z"/>
					</g>
					<g id="diamante2" class="diagrama-btn">
						<path id="rectangulo-diamante2" class="fil3" d="M13184 10431l522 0 0 -6891 -883 0c-508,863 -813,1972 -813,3181 0,1474 454,2798 1175,3710z"/>
						<path class="fil7" d="M12151 6408l0 -345 129 0c26,0 47,3 63,10 16,7 28,18 37,32 9,14 14,30 14,46 0,15 -4,29 -12,42 -8,13 -20,24 -36,32 21,6 37,17 48,31 11,15 17,32 17,52 0,16 -3,31 -10,45 -7,14 -15,25 -25,32 -10,7 -23,13 -38,17 -15,4 -34,6 -56,6l-132 0zm46 -200l75 0c20,0 35,-1 44,-4 12,-3 20,-9 26,-17 6,-8 9,-18 9,-30 0,-11 -3,-22 -8,-30 -5,-9 -13,-15 -24,-18 -10,-3 -28,-5 -52,-5l-69 0 0 105zm0 159l86 0c15,0 25,-1 31,-2 10,-2 19,-5 26,-9 7,-4 13,-11 17,-19 5,-8 7,-18 7,-29 0,-13 -3,-24 -10,-34 -7,-10 -16,-16 -27,-20 -12,-4 -29,-6 -50,-6l-80 0 0 119z"/>
						<polygon id="1" class="fil7" points="12468,6408 12468,6063 12511,6063 12511,6408 "/>
						<path id="2" class="fil7" d="M12560 6283c0,-46 13,-80 39,-103 21,-18 48,-28 79,-28 34,0 62,11 84,34 22,22 33,53 33,93 0,32 -5,57 -14,76 -10,18 -24,33 -42,43 -18,10 -39,15 -60,15 -35,0 -63,-11 -85,-34 -22,-22 -32,-55 -32,-97zm43 0c0,32 7,56 21,72 14,16 32,24 53,24 21,0 39,-8 53,-24 14,-16 21,-40 21,-73 0,-31 -7,-54 -21,-70 -14,-16 -32,-24 -52,-24 -21,0 -39,8 -53,24 -14,16 -21,40 -21,72z"/>
						<path id="3" class="fil7" d="M13003 6504l0 -123c-7,9 -16,17 -28,23 -12,6 -24,9 -38,9 -30,0 -55,-12 -77,-35 -21,-24 -32,-56 -32,-97 0,-25 4,-48 13,-67 9,-20 21,-35 38,-45 17,-10 35,-15 54,-15 31,0 55,13 73,39l0 -34 38 0 0 346 -42 0zm-131 -222c0,32 7,56 20,72 13,16 30,24 48,24 18,0 34,-8 47,-23 13,-15 20,-39 20,-70 0,-33 -7,-58 -21,-75 -14,-17 -30,-25 -48,-25 -18,0 -34,8 -47,23 -13,16 -19,40 -19,73z"/>
						<path id="4" class="fil7" d="M13275 6408l0 -37c-19,28 -46,42 -79,42 -15,0 -28,-3 -41,-8 -13,-6 -22,-13 -28,-21 -6,-9 -11,-19 -13,-31 -2,-8 -3,-22 -3,-40l0 -155 42 0 0 138c0,22 1,37 3,45 3,11 8,20 17,26 9,6 19,10 32,10 13,0 25,-3 36,-10 11,-7 19,-15 24,-27 5,-11 7,-27 7,-49l0 -134 42 0 0 250 -38 0z"/>
						<path id="5" class="fil7" d="M13550 6327l44 6c-7,25 -20,45 -38,59 -19,14 -42,21 -71,21 -36,0 -65,-11 -87,-34 -21,-22 -32,-54 -32,-94 0,-42 11,-75 32,-98 22,-23 50,-35 84,-35 33,0 61,11 82,34 21,23 32,55 32,96 0,2 0,6 0,11l-186 0c2,27 9,48 23,63 14,15 31,22 52,22 15,0 29,-4 40,-12 11,-8 20,-21 26,-39zm-139 -68l139 0c-2,-21 -7,-37 -16,-47 -13,-16 -31,-24 -52,-24 -19,0 -36,7 -49,20 -13,13 -20,30 -22,52z"/>
						<path id="6" class="fil7" d="M12232 6947l0 -82 -150 0 0 -39 158 -224 35 0 0 224 47 0 0 39 -47 0 0 82 -42 0zm0 -121l0 -155 -108 155 108 0z"/>
						<path id="7" class="fil7" d="M12387 6947l0 -48 48 0 0 48c0,18 -3,32 -9,43 -6,11 -16,19 -30,25l-12 -18c9,-4 16,-10 20,-17 4,-8 7,-19 7,-33l-24 0z"/>
						<path id="8" class="fil7" d="M12632 6856l44 -3c3,22 11,38 23,49 12,11 26,16 44,16 21,0 38,-8 52,-23 14,-15 21,-36 21,-61 0,-24 -7,-43 -20,-57 -13,-14 -31,-21 -53,-21 -14,0 -26,3 -37,9 -11,6 -19,14 -26,24l-40 -6 33 -177 171 0 0 40 -137 0 -18 93c21,-15 42,-22 65,-22 30,0 55,10 76,31 21,21 31,48 31,80 0,31 -9,58 -27,81 -22,28 -52,42 -90,42 -31,0 -57,-9 -77,-26 -20,-18 -31,-41 -34,-70z"/>
						<path id="9" class="fil7" d="M13043 7043l-5 -39c9,2 17,4 24,4 9,0 17,-2 23,-5 6,-3 10,-8 14,-13 3,-4 7,-15 13,-32 1,-2 2,-6 4,-10l-95 -251 45 0 52 144c7,18 13,37 18,58 5,-19 11,-38 17,-56l53 -146 42 0 -95 254c-10,27 -18,46 -24,57 -8,14 -16,24 -26,31 -10,6 -21,10 -35,10 -8,0 -17,-2 -27,-5z"/>
						<path id="10" class="fil7" d="M13628 6686l-42 3c-4,-17 -9,-29 -16,-36 -11,-12 -26,-18 -43,-18 -14,0 -26,4 -36,11 -13,10 -24,24 -32,42 -8,19 -12,45 -12,80 10,-15 23,-27 37,-35 15,-8 30,-11 46,-11 28,0 52,10 72,31 20,21 30,48 30,81 0,22 -5,42 -14,60 -9,19 -22,33 -39,43 -16,10 -35,15 -56,15 -35,0 -64,-13 -86,-39 -22,-26 -33,-69 -33,-128 0,-67 12,-115 37,-145 22,-26 50,-40 87,-40 27,0 49,8 67,23 17,15 28,36 31,63zm-173 149c0,15 3,29 9,42 6,13 15,23 26,30 11,7 23,11 35,11 18,0 33,-7 46,-22 13,-14 19,-34 19,-59 0,-24 -6,-43 -19,-56 -13,-14 -29,-21 -48,-21 -19,0 -35,7 -49,21 -13,14 -20,32 -20,54z"/>
					</g>
					<g id="vip" class="diagrama-btn">
						<path id="rectangulo-vip" class="fil4" d="M13706 3539l0 6891 0 548c536,461 1165,726 1838,726 673,0 1302,-265 1838,-726l0 -548 0 -6891 -3676 0z"/>
						<path class="fil7" d="M14656 7747l0 -345 129 0c26,0 47,3 63,10 16,7 28,18 37,32 9,14 14,30 14,46 0,15 -4,29 -12,42 -8,13 -20,24 -36,32 21,6 37,17 48,31 11,15 17,32 17,52 0,16 -3,31 -10,45 -7,14 -15,25 -25,32 -10,7 -23,13 -38,17 -15,4 -34,6 -56,6l-132 0zm46 -200l75 0c20,0 35,-1 44,-4 12,-3 20,-9 26,-17 6,-8 9,-18 9,-30 0,-11 -3,-22 -8,-30 -5,-9 -13,-15 -24,-18 -10,-3 -28,-5 -52,-5l-69 0 0 105zm0 159l86 0c15,0 25,-1 31,-2 10,-2 19,-5 26,-9 7,-4 13,-11 17,-19 5,-8 7,-18 7,-29 0,-13 -3,-24 -10,-34 -7,-10 -16,-16 -27,-20 -12,-4 -29,-6 -50,-6l-80 0 0 119z"/>
						<polygon id="1" class="fil7" points="14973,7747 14973,7402 15015,7402 15015,7747 "/>
						<path id="2" class="fil7" d="M15065 7622c0,-46 13,-80 39,-103 21,-18 48,-28 79,-28 34,0 62,11 84,34 22,22 33,53 33,93 0,32 -5,57 -14,76 -10,18 -24,33 -42,43 -18,10 -39,15 -60,15 -35,0 -63,-11 -85,-34 -22,-22 -32,-55 -32,-97zm43 0c0,32 7,56 21,72 14,16 32,24 53,24 21,0 39,-8 53,-24 14,-16 21,-40 21,-73 0,-31 -7,-54 -21,-70 -14,-16 -32,-24 -52,-24 -21,0 -39,8 -53,24 -14,16 -21,40 -21,72z"/>
						<path id="3" class="fil7" d="M15508 7843l0 -123c-7,9 -16,17 -28,23 -12,6 -24,9 -38,9 -30,0 -55,-12 -77,-35 -21,-24 -32,-56 -32,-97 0,-25 4,-48 13,-67 9,-20 21,-35 38,-45 17,-10 35,-15 54,-15 31,0 55,13 73,39l0 -34 38 0 0 346 -42 0zm-131 -222c0,32 7,56 20,72 13,16 30,24 48,24 18,0 34,-8 47,-23 13,-15 20,-39 20,-70 0,-33 -7,-58 -21,-75 -14,-17 -30,-25 -48,-25 -18,0 -34,8 -47,23 -13,16 -19,40 -19,73z"/>
						<path id="4" class="fil7" d="M15780 7747l0 -37c-19,28 -46,42 -79,42 -15,0 -28,-3 -41,-8 -13,-6 -22,-13 -28,-21 -6,-9 -11,-19 -13,-31 -2,-8 -3,-22 -3,-40l0 -155 42 0 0 138c0,22 1,37 3,45 3,11 8,20 17,26 9,6 19,10 32,10 13,0 25,-3 36,-10 11,-7 19,-15 24,-27 5,-11 7,-27 7,-49l0 -134 42 0 0 250 -38 0z"/>
						<path id="5" class="fil7" d="M16055 7666l44 6c-7,25 -20,45 -38,59 -19,14 -42,21 -71,21 -36,0 -65,-11 -87,-34 -21,-22 -32,-54 -32,-94 0,-42 11,-75 32,-98 22,-23 50,-35 84,-35 33,0 61,11 82,34 21,23 32,55 32,96 0,2 0,6 0,11l-186 0c2,27 9,48 23,63 14,15 31,22 52,22 15,0 29,-4 40,-12 11,-8 20,-21 26,-39zm-139 -68l139 0c-2,-21 -7,-37 -16,-47 -13,-16 -31,-24 -52,-24 -19,0 -36,7 -49,20 -13,13 -20,30 -22,52z"/>
						<path id="6" class="fil7" d="M16433 7747l-42 0 0 -270c-10,10 -24,20 -40,29 -17,10 -31,17 -45,22l0 -41c24,-11 44,-25 62,-40 18,-16 30,-31 38,-46l27 0 0 346z"/>
					</g>
					<g id="escenario">
						<path id="rectangulo-escenario" class="fil1" d="M12823 3539l883 0 3676 0 883 0c-648,-1102 -1627,-1803 -2721,-1803 -1095,0 -2073,702 -2721,1803z"/>
						<polygon class="fil7" points="14501,3072 14501,2727 14750,2727 14750,2767 14547,2767 14547,2873 14737,2873 14737,2914 14547,2914 14547,3031 14759,3031 14759,3072 "/>
						<path id="1" class="fil7" d="M14800 2997l42 -7c2,17 9,30 20,39 11,9 26,13 45,13 20,0 34,-4 43,-12 9,-8 14,-17 14,-28 0,-10 -4,-17 -13,-23 -6,-4 -20,-9 -43,-14 -31,-8 -52,-15 -64,-20 -12,-6 -21,-14 -27,-24 -6,-10 -9,-21 -9,-33 0,-11 3,-21 8,-31 5,-9 12,-17 21,-24 7,-5 16,-9 27,-12 11,-3 24,-5 37,-5 20,0 37,3 52,9 15,6 26,13 33,23 7,10 12,23 15,39l-41 6c-2,-13 -7,-23 -16,-31 -9,-7 -22,-11 -38,-11 -19,0 -33,3 -42,10 -8,6 -12,14 -12,23 0,5 2,10 5,15 3,4 9,8 16,11 4,2 17,5 37,11 30,8 51,15 63,20 12,5 21,13 28,22 7,10 10,22 10,36 0,14 -4,27 -12,40 -8,12 -20,22 -36,29 -16,7 -33,10 -53,10 -32,0 -57,-7 -74,-20 -17,-13 -28,-33 -33,-60z"/>
						<path id="2" class="fil7" d="M15221 2980l41 6c-5,29 -16,51 -35,67 -19,16 -42,24 -69,24 -34,0 -62,-11 -82,-33 -21,-22 -31,-54 -31,-96 0,-27 4,-50 13,-71 9,-20 22,-35 41,-45 18,-10 38,-15 60,-15 27,0 49,7 66,21 17,14 28,33 33,58l-41 6c-4,-17 -11,-29 -21,-38 -10,-8 -22,-13 -36,-13 -21,0 -39,8 -52,23 -13,15 -20,39 -20,72 0,34 6,58 19,73 13,15 30,23 50,23 17,0 31,-5 42,-15 11,-10 18,-26 21,-47z"/>
						<path id="3" class="fil7" d="M15469 2991l44 6c-7,25 -20,45 -38,59 -19,14 -42,21 -71,21 -36,0 -65,-11 -87,-34 -21,-22 -32,-54 -32,-94 0,-42 11,-75 32,-98 22,-23 50,-35 84,-35 33,0 61,11 82,34 21,23 32,55 32,96 0,2 0,6 0,11l-186 0c2,27 9,48 23,63 14,15 31,22 52,22 15,0 29,-4 40,-12 11,-8 20,-21 26,-39zm-139 -68l139 0c-2,-21 -7,-37 -16,-47 -13,-16 -31,-24 -52,-24 -19,0 -36,7 -49,20 -13,13 -20,30 -22,52z"/>
						<path id="4" class="fil7" d="M15566 3072l0 -250 38 0 0 35c18,-27 45,-41 79,-41 15,0 29,3 42,8 13,5 22,13 28,21 6,9 11,19 13,31 2,8 2,22 2,41l0 154 -42 0 0 -152c0,-17 -2,-30 -5,-39 -3,-9 -9,-15 -17,-20 -8,-5 -18,-8 -29,-8 -18,0 -33,6 -47,17 -13,11 -20,33 -20,65l0 136 -42 0z"/>
						<path id="5" class="fil7" d="M15997 3040c-16,13 -31,23 -45,28 -15,6 -30,8 -47,8 -27,0 -49,-7 -63,-20 -15,-13 -22,-30 -22,-51 0,-12 3,-23 8,-33 6,-10 13,-18 22,-24 9,-6 19,-11 31,-14 8,-2 21,-4 38,-6 34,-4 59,-9 76,-15 0,-6 0,-9 0,-11 0,-17 -4,-29 -12,-36 -11,-10 -27,-14 -48,-14 -20,0 -35,4 -44,11 -10,7 -17,19 -21,37l-41 -6c4,-18 10,-32 19,-43 9,-11 21,-19 38,-25 16,-6 35,-9 57,-9 21,0 39,2 52,8 13,5 23,11 29,19 6,8 11,17 13,29 1,7 2,20 2,39l0 56c0,39 1,64 3,75 2,11 5,21 10,30l-44 0c-4,-9 -7,-19 -8,-31zm-3 -94c-15,6 -39,12 -69,16 -18,2 -30,5 -37,8 -7,3 -13,8 -17,14 -4,6 -6,13 -6,20 0,11 4,21 13,28 9,7 21,11 38,11 16,0 31,-4 44,-11 13,-7 22,-17 28,-29 5,-10 7,-24 7,-42l0 -15z"/>
						<path id="6" class="fil7" d="M16101 3072l0 -250 38 0 0 38c10,-18 19,-29 27,-35 8,-6 17,-9 27,-9 14,0 29,4 44,13l-15 39c-10,-6 -21,-9 -31,-9 -9,0 -18,3 -25,8 -7,6 -13,13 -16,23 -5,15 -7,31 -7,49l0 131 -42 0z"/>
						<path id="7" class="fil7" d="M16262 2775l0 -48 42 0 0 48 -42 0zm0 297l0 -250 42 0 0 250 -42 0z"/>
						<path id="8" class="fil7" d="M16353 2947c0,-46 13,-80 39,-103 21,-18 48,-28 79,-28 34,0 62,11 84,34 22,22 33,53 33,93 0,32 -5,57 -14,76 -10,18 -24,33 -42,43 -18,10 -39,15 -60,15 -35,0 -63,-11 -85,-34 -22,-22 -32,-55 -32,-97zm43 0c0,32 7,56 21,72 14,16 32,24 53,24 21,0 39,-8 53,-24 14,-16 21,-40 21,-73 0,-31 -7,-54 -21,-70 -14,-16 -32,-24 -52,-24 -21,0 -39,8 -53,24 -14,16 -21,40 -21,72z"/>
					</g>
				</g>
			</g>
		</svg>