<?xml version="1.0" encoding="UTF-8"?>
<!DOCTYPE svg PUBLIC "-//W3C//DTD SVG 1.1//EN" "http://www.w3.org/Graphics/SVG/1.1/DTD/svg11.dtd">
<!-- Creator: CorelDRAW X6 -->
<svg xmlns="http://www.w3.org/2000/svg" xml:space="preserve" width="33.6628mm" height="31.1573mm" version="1.1" style="shape-rendering:geometricPrecision; text-rendering:geometricPrecision; image-rendering:optimizeQuality; fill-rule:evenodd; clip-rule:evenodd"
viewBox="0 0 1852 1714"
 xmlns:xlink="http://www.w3.org/1999/xlink">
 <defs>
  <style type="text/css">
   <![CDATA[
    .fil0 {fill:#FEFEFE}
   ]]>
  </style>
 </defs>
 <g id="Capa_x0020_1">
  <metadata id="CorelCorpID_0Corel-Layer"/>
  <g id="_642278720">
   <path class="fil0" d="M1850 1126c-1,4 1,0 -1,3l-50 64c-27,32 -44,50 -70,80 -26,29 -75,74 -106,100 -189,163 -425,241 -685,264 -82,7 -139,8 -217,-9 -61,-14 -122,-40 -168,-68 -333,-200 -417,-645 -315,-1029 16,-61 41,-118 69,-169 21,-39 57,-88 88,-120 46,-47 94,-82 155,-112 227,-112 551,-69 761,60 32,19 76,51 104,75 38,34 51,46 88,88 10,11 17,21 27,33 42,55 78,122 106,190 22,56 39,126 46,192 7,64 8,162 -2,225 -9,57 -30,101 -69,140 -5,5 -10,9 -15,14 -8,8 -62,56 -75,25 -13,-30 58,-247 69,-282 9,-31 18,-61 27,-92 8,-30 19,-69 10,-101 -8,-31 -37,-47 -76,-38 -30,7 -58,24 -80,37 -15,9 -46,33 -59,45l-68 65c3,-20 12,-43 16,-64 4,-24 7,-49 -5,-68 -21,-34 -88,-9 -116,7 -26,15 -50,30 -72,48 -7,6 -15,12 -22,18 -12,11 -75,67 -81,75 0,-13 10,-45 13,-59 11,-41 37,-101 -2,-106 -19,-3 -45,6 -61,12 -63,24 -100,55 -146,95l-27 26c1,4 17,24 20,28 6,-2 103,-101 120,-74 8,12 -28,146 -33,167l-58 246c-6,25 -15,57 -19,82l99 0c3,-21 11,-49 16,-71 5,-23 11,-48 16,-71 18,-74 37,-198 91,-254 15,-15 27,-28 44,-43 18,-14 90,-76 111,-49 9,11 -5,54 -9,70 -11,47 -22,92 -34,139 -12,47 -22,92 -34,139 -6,26 -31,122 -34,140l99 0c17,-86 47,-197 71,-284 13,-49 28,-83 58,-119 4,-5 9,-10 14,-15 5,-5 9,-9 15,-14 21,-20 144,-119 123,-14 -14,69 -57,202 -78,276 -16,56 -39,155 11,187 27,17 67,-4 88,-16 78,-46 131,-107 156,-196 34,-123 24,-301 -12,-419 -39,-130 -91,-222 -161,-308 -31,-38 -79,-88 -118,-119 -44,-35 -85,-64 -141,-94 -110,-60 -223,-91 -368,-101 -262,-7 -493,90 -661,269l-28 31c-37,42 -85,115 -110,164 -79,157 -113,325 -85,527 17,120 67,248 131,343 42,63 90,119 146,168 27,24 57,46 90,68 96,64 220,114 341,131 134,19 309,14 438,-14 87,-19 160,-45 234,-82 118,-59 222,-147 304,-247 12,-15 23,-28 35,-44 42,-56 74,-106 110,-166 3,-5 4,-8 7,-13 6,-11 6,-9 4,-11z"/>
   <path class="fil0" d="M584 735c56,-8 74,60 74,112 0,59 -11,109 -27,161 -22,71 -82,205 -172,203 -29,-1 -48,-18 -60,-34 -16,-21 -17,-47 -16,-79 5,-94 43,-209 93,-282 23,-33 65,-74 107,-81zm-127 40c1,-12 38,-162 41,-178 14,-59 27,-118 46,-174 15,-44 41,-132 32,-183 -2,-14 -8,-32 -26,-25 -56,21 -109,213 -122,262 -30,103 -61,250 -84,357 -13,61 -27,120 -40,181 -12,60 -26,135 7,184 51,77 153,71 237,25 12,-7 23,-14 34,-22 6,-4 10,-7 16,-12 87,-73 147,-188 165,-302 10,-61 10,-145 -22,-189 -65,-89 -193,-13 -256,48l-28 28z"/>
   <path class="fil0" d="M1465 1410c0,-40 -7,-69 22,-65 9,13 5,48 5,66l22 0c0,-14 -1,-31 0,-45 2,-26 22,-26 26,-14 2,6 1,51 1,59 10,1 11,1 22,0l0 -11c0,-25 5,-63 -17,-70 -17,-6 -27,4 -35,11 -7,-6 -10,-13 -25,-12 -12,1 -18,7 -23,12 -1,-13 3,-10 -21,-10l0 81 22 0z"/>
   <path class="fil0" d="M736 1410c0,-13 0,-28 0,-41 0,-13 1,-25 15,-25 14,-1 12,15 12,27 0,13 0,27 0,40l22 -1c0,-20 -7,-65 15,-66 14,-1 12,15 12,27 0,13 0,26 0,40l22 -1c-1,-39 9,-83 -27,-83 -13,0 -19,8 -25,12 -7,-6 -10,-13 -25,-12 -12,1 -18,7 -23,12 -1,-5 0,-6 -2,-10l-19 0 0 81 22 0z"/>
   <path class="fil0" d="M428 1345c28,-10 29,44 12,49 -15,5 -23,-6 -24,-19 -2,-15 0,-26 12,-30zm-14 55c6,4 7,9 17,11 26,6 41,-15 41,-40 1,-18 -6,-33 -17,-39 -17,-10 -30,-3 -41,6l-1 -40 -21 0 0 113 21 0 0 -10z"/>
   <path class="fil0" d="M1383 1345c28,-7 31,44 8,48 -28,5 -32,-42 -8,-48zm-37 34c10,51 92,41 82,-20 -9,-50 -94,-41 -82,20z"/>
   <path class="fil0" d="M1156 1346c28,-7 32,43 9,48 -28,7 -34,-41 -9,-48zm-37 30c6,54 89,48 83,-11 -5,-53 -89,-48 -83,11z"/>
   <path class="fil0" d="M508 1378c-9,-36 31,-44 37,-17 8,36 -31,44 -37,17zm-22 0c8,53 91,43 82,-17 -8,-52 -92,-45 -82,17z"/>
   <path class="fil0" d="M899 1372c7,51 -69,9 0,0zm-28 -18c3,-7 7,-11 17,-10 9,1 12,5 11,13 -21,9 -53,4 -50,34 2,25 38,27 52,11l3 9 21 0c-4,-17 -4,-22 -4,-41 0,-13 1,-30 -9,-37 -10,-7 -55,-13 -60,18l19 3z"/>
   <path class="fil0" d="M676 1362l-31 0c0,-11 4,-19 15,-19 12,0 15,7 16,18zm0 22c-5,6 -6,15 -20,11 -9,-2 -11,-10 -12,-19l53 0c7,-57 -64,-67 -74,-19 -14,68 69,67 73,30l-20 -3z"/>
   <path class="fil0" d="M1088 1379c-5,9 -7,18 -21,14 -10,-2 -12,-12 -13,-22 -1,-33 27,-34 32,-14l21 -3c-6,-37 -77,-41 -75,19 2,52 70,52 76,10l-20 -3z"/>
   <path class="fil0" d="M1313 1379c-4,22 -31,21 -33,-8 0,-11 1,-22 10,-25 14,-5 18,3 22,11l20 -4c-4,-35 -77,-41 -75,19 2,51 68,53 77,10l-22 -3z"/>
   <path class="fil0" d="M935 1345c0,0 1,0 1,0l6 2c2,50 -10,72 38,62l-2 -16c-14,-1 -15,6 -15,-15 0,-10 0,-22 0,-32l14 0 0 -17 -14 0 0 -28c-4,1 -18,10 -22,12l0 15 -10 1 0 16 2 1z"/>
   <polygon class="fil0" points="585,1410 606,1410 606,1297 585,1297 "/>
   <polygon class="fil0" points="993,1410 1004,1410 1015,1410 1015,1398 1015,1337 1015,1328 993,1328 993,1337 993,1403 "/>
   <polygon class="fil0" points="1219,1410 1241,1410 1240,1388 1219,1389 "/>
   <polygon class="fil0" points="993,1318 1015,1318 1015,1297 993,1297 "/>
  </g>
 </g>
</svg>
