<?xml version="1.0" encoding="UTF-8"?>
<!DOCTYPE svg PUBLIC "-//W3C//DTD SVG 1.1//EN" "http://www.w3.org/Graphics/SVG/1.1/DTD/svg11.dtd">
<!-- Creator: CorelDRAW X6 -->
<svg xmlns="http://www.w3.org/2000/svg" xml:space="preserve" width="48.9374mm" height="31.1572mm" version="1.1" style="shape-rendering:geometricPrecision; text-rendering:geometricPrecision; image-rendering:optimizeQuality; fill-rule:evenodd; clip-rule:evenodd"
viewBox="0 0 1257 800"
 xmlns:xlink="http://www.w3.org/1999/xlink">
 <defs>
  <style type="text/css">
   <![CDATA[
    .fil0 {fill:black}
    .fil1 {fill:#FEFEFE}
    .fil2 {fill:black;fill-rule:nonzero}
   ]]>
  </style>
 </defs>
 <g id="Capa_x0020_1">
  <metadata id="CorelCorpID_0Corel-Layer"/>
  <g id="_643182496">
   <path class="fil0" d="M0 209l0 383c0,109 102,209 204,209l850 0c72,0 148,-54 178,-113 8,-16 24,-51 24,-74l0 -426c0,-32 -24,-77 -42,-102 -32,-43 -97,-85 -160,-85l-850 0c-102,0 -204,100 -204,209z"/>
   <path class="fil1" d="M97 642l0 113 760 2c11,-2 23,-1 35,-1 89,0 178,0 267,0l1 -108c-96,0 -981,4 -991,-2 2,-7 5,-5 12,-9 6,-3 10,-5 15,-9 29,-22 47,-60 41,-99 -16,-115 -180,-121 -204,-7 -8,38 8,81 35,102 9,7 21,13 29,18z"/>
   <path class="fil1" d="M660 630l87 1c1,-78 0,-155 0,-233 0,-39 -1,-79 0,-117 3,-82 113,-83 114,-2 1,116 -3,237 0,352l92 0c1,-79 0,-157 0,-235 0,-37 -2,-81 0,-117 5,-79 117,-81 118,-2 2,116 -2,237 0,354l87 0c3,-89 0,-200 0,-293 0,-29 3,-70 -3,-98 -10,-49 -50,-89 -95,-102 -51,-15 -125,2 -147,42 -6,-3 -19,-17 -26,-22 -9,-7 -19,-13 -32,-18 -78,-27 -167,18 -190,98 -11,38 -5,147 -5,194 0,66 -1,133 0,199z"/>
   <path class="fil1" d="M99 425l86 0c0,-42 0,-85 0,-127 0,-31 4,-70 44,-81 15,-4 220,-2 253,-2 103,0 91,113 18,123 -26,3 -206,0 -253,1l0 87c35,0 247,-4 270,5 56,22 48,89 3,110 -21,10 -62,6 -88,6 -61,0 -123,-1 -184,0l-1 86c57,1 115,0 172,0 56,0 109,7 152,-19 30,-18 62,-54 70,-102 9,-53 -11,-105 -39,-128 4,-8 9,-12 15,-20 4,-6 10,-14 13,-22 8,-17 12,-38 13,-59 2,-49 -14,-78 -37,-104 -56,-61 -135,-50 -234,-50 -90,0 -181,-18 -233,48 -22,27 -38,56 -39,103 -1,47 0,97 0,144z"/>
   <path class="fil0" d="M116 478c-87,25 -49,154 36,130 30,-8 58,-42 47,-84 -8,-31 -41,-59 -83,-47z"/>
   <path class="fil2" d="M144 727l-14 -47 8 0 8 27 3 10c0,0 1,-4 2,-10l7 -28 8 0 7 27 2 9 3 -9 8 -27 8 0 -15 47 -8 0 -7 -28 -2 -8 -10 36 -8 0z"/>
   <path id="1" class="fil2" d="M210 727l-14 -47 8 0 8 27 3 10c0,0 1,-4 2,-10l7 -28 8 0 7 27 2 9 3 -9 8 -27 8 0 -15 47 -8 0 -7 -28 -2 -8 -10 36 -8 0z"/>
   <path id="2" class="fil2" d="M275 727l-14 -47 8 0 8 27 3 10c0,0 1,-4 2,-10l7 -28 8 0 7 27 2 9 3 -9 8 -27 8 0 -15 47 -8 0 -7 -28 -2 -8 -10 36 -8 0z"/>
   <polygon id="3" class="fil2" points="329,727 329,718 339,718 339,727 "/>
   <path id="4" class="fil2" d="M360 727l-7 0 0 -65 8 0 0 23c3,-4 8,-6 13,-6 3,0 6,1 8,2 3,1 5,3 6,5 2,2 3,5 4,8 1,3 1,6 1,10 0,8 -2,14 -6,19 -4,4 -9,7 -14,7 -6,0 -10,-2 -13,-7l0 6zm0 -24c0,6 1,10 2,12 3,4 6,6 10,6 3,0 6,-2 9,-5 3,-3 4,-8 4,-13 0,-6 -1,-11 -4,-14 -2,-3 -5,-4 -9,-4 -3,0 -6,2 -9,5 -3,3 -4,7 -4,13z"/>
   <path id="5" class="fil2" d="M400 703c0,-9 2,-15 7,-19 4,-3 9,-5 15,-5 6,0 12,2 16,6 4,4 6,10 6,17 0,6 -1,11 -3,14 -2,3 -4,6 -8,8 -3,2 -7,3 -11,3 -7,0 -12,-2 -16,-6 -4,-4 -6,-10 -6,-18zm8 0c0,6 1,11 4,13 3,3 6,4 10,4 4,0 7,-1 10,-4 3,-3 4,-8 4,-14 0,-6 -1,-10 -4,-13 -3,-3 -6,-4 -10,-4 -4,0 -7,1 -10,4 -3,3 -4,7 -4,13z"/>
   <polygon id="6" class="fil2" points="453,727 453,662 461,662 461,727 "/>
   <path id="7" class="fil2" d="M505 711l8 1c-1,5 -4,9 -7,11 -4,3 -8,4 -13,4 -7,0 -12,-2 -16,-6 -4,-4 -6,-10 -6,-18 0,-8 2,-14 6,-18 4,-4 9,-7 16,-7 6,0 11,2 15,6 4,4 6,10 6,18 0,0 0,1 0,2l-35 0c0,5 2,9 4,12 3,3 6,4 10,4 3,0 5,-1 7,-2 2,-2 4,-4 5,-7zm-26 -13l26 0c0,-4 -1,-7 -3,-9 -3,-3 -6,-5 -10,-5 -4,0 -7,1 -9,4 -2,2 -4,6 -4,10z"/>
   <path id="8" class="fil2" d="M524 727l0 -47 7 0 0 7c1,-2 3,-4 6,-6 2,-1 5,-2 8,-2 3,0 6,1 9,2 2,1 4,3 5,6 4,-5 9,-8 15,-8 5,0 8,1 11,4 3,3 4,7 4,12l0 32 -8 0 0 -30c0,-3 0,-5 -1,-7 -1,-1 -1,-3 -3,-3 -1,-1 -3,-1 -5,-1 -3,0 -6,1 -8,3 -2,2 -3,6 -3,11l0 27 -8 0 0 -31c0,-4 -1,-6 -2,-8 -1,-2 -3,-3 -6,-3 -2,0 -4,1 -6,2 -2,1 -3,3 -4,5 -1,2 -1,6 -1,10l0 24 -8 0z"/>
   <path id="9" class="fil2" d="M630 721c-3,3 -6,4 -9,5 -3,1 -6,2 -9,2 -5,0 -9,-1 -12,-4 -3,-3 -4,-6 -4,-10 0,-2 1,-4 2,-6 1,-2 2,-3 4,-5 2,-1 4,-2 6,-3 2,0 4,-1 7,-1 6,-1 11,-2 14,-3 0,-1 0,-2 0,-2 0,-3 -1,-6 -2,-7 -2,-2 -5,-3 -9,-3 -4,0 -7,1 -8,2 -2,1 -3,4 -4,7l-8 -1c1,-3 2,-6 4,-8 2,-2 4,-4 7,-5 3,-1 7,-2 11,-2 4,0 7,0 10,1 3,1 4,2 6,4 1,1 2,3 2,5 0,1 0,4 0,7l0 11c0,7 0,12 0,14 0,2 1,4 2,6l-8 0c-1,-2 -1,-4 -2,-6zm-1 -18c-3,1 -7,2 -13,3 -3,0 -6,1 -7,2 -1,1 -2,1 -3,3 -1,1 -1,2 -1,4 0,2 1,4 2,5 2,1 4,2 7,2 3,0 6,-1 8,-2 2,-1 4,-3 5,-5 1,-2 1,-4 1,-8l0 -3z"/>
   <path id="10" class="fil2" d="M667 720l1 7c-2,0 -4,1 -6,1 -3,0 -5,0 -7,-1 -2,-1 -3,-2 -3,-4 -1,-1 -1,-5 -1,-9l0 -27 -6 0 0 -6 6 0 0 -12 8 -5 0 16 8 0 0 6 -8 0 0 28c0,2 0,4 0,4 0,1 1,1 1,2 1,0 2,1 3,1 1,0 2,0 3,0z"/>
   <path id="11" class="fil2" d="M675 671l0 -9 8 0 0 9 -8 0zm0 56l0 -47 8 0 0 47 -8 0z"/>
   <path id="12" class="fil2" d="M725 709l8 1c-1,5 -3,10 -7,13 -4,3 -8,5 -13,5 -6,0 -12,-2 -15,-6 -4,-4 -6,-10 -6,-18 0,-5 1,-9 3,-13 2,-4 4,-7 8,-9 3,-2 7,-3 11,-3 5,0 9,1 13,4 3,3 5,6 6,11l-8 1c-1,-3 -2,-6 -4,-7 -2,-2 -4,-2 -7,-2 -4,0 -7,1 -10,4 -3,3 -4,7 -4,14 0,6 1,11 4,14 2,3 6,4 9,4 3,0 6,-1 8,-3 2,-2 3,-5 4,-9z"/>
   <path id="13" class="fil2" d="M737 703c0,-9 2,-15 7,-19 4,-3 9,-5 15,-5 6,0 12,2 16,6 4,4 6,10 6,17 0,6 -1,11 -3,14 -2,3 -4,6 -8,8 -3,2 -7,3 -11,3 -7,0 -12,-2 -16,-6 -4,-4 -6,-10 -6,-18zm8 0c0,6 1,11 4,13 3,3 6,4 10,4 4,0 7,-1 10,-4 3,-3 4,-8 4,-14 0,-6 -1,-10 -4,-13 -3,-3 -6,-4 -10,-4 -4,0 -7,1 -10,4 -3,3 -4,7 -4,13z"/>
   <polygon id="14" class="fil2" points="793,727 793,718 802,718 802,727 "/>
   <path id="15" class="fil2" d="M846 709l8 1c-1,5 -3,10 -7,13 -4,3 -8,5 -13,5 -6,0 -12,-2 -15,-6 -4,-4 -6,-10 -6,-18 0,-5 1,-9 3,-13 2,-4 4,-7 8,-9 3,-2 7,-3 11,-3 5,0 9,1 13,4 3,3 5,6 6,11l-8 1c-1,-3 -2,-6 -4,-7 -2,-2 -4,-2 -7,-2 -4,0 -7,1 -10,4 -3,3 -4,7 -4,14 0,6 1,11 4,14 2,3 6,4 9,4 3,0 6,-1 8,-3 2,-2 3,-5 4,-9z"/>
   <path id="16" class="fil2" d="M858 703c0,-9 2,-15 7,-19 4,-3 9,-5 15,-5 6,0 12,2 16,6 4,4 6,10 6,17 0,6 -1,11 -3,14 -2,3 -4,6 -8,8 -3,2 -7,3 -11,3 -7,0 -12,-2 -16,-6 -4,-4 -6,-10 -6,-18zm8 0c0,6 1,11 4,13 3,3 6,4 10,4 4,0 7,-1 10,-4 3,-3 4,-8 4,-14 0,-6 -1,-10 -4,-13 -3,-3 -6,-4 -10,-4 -4,0 -7,1 -10,4 -3,3 -4,7 -4,13z"/>
   <path id="17" class="fil2" d="M911 727l0 -47 7 0 0 7c1,-2 3,-4 6,-6 2,-1 5,-2 8,-2 3,0 6,1 9,2 2,1 4,3 5,6 4,-5 9,-8 15,-8 5,0 8,1 11,4 3,3 4,7 4,12l0 32 -8 0 0 -30c0,-3 0,-5 -1,-7 -1,-1 -1,-3 -3,-3 -1,-1 -3,-1 -5,-1 -3,0 -6,1 -8,3 -2,2 -3,6 -3,11l0 27 -8 0 0 -31c0,-4 -1,-6 -2,-8 -1,-2 -3,-3 -6,-3 -2,0 -4,1 -6,2 -2,1 -3,3 -4,5 -1,2 -1,6 -1,10l0 24 -8 0z"/>
   <polygon id="18" class="fil2" points="989,727 989,718 998,718 998,727 "/>
   <path id="19" class="fil2" d="M1012 727l0 -47 7 0 0 7c1,-2 3,-4 6,-6 2,-1 5,-2 8,-2 3,0 6,1 9,2 2,1 4,3 5,6 4,-5 9,-8 15,-8 5,0 8,1 11,4 3,3 4,7 4,12l0 32 -8 0 0 -30c0,-3 0,-5 -1,-7 -1,-1 -1,-3 -3,-3 -1,-1 -3,-1 -5,-1 -3,0 -6,1 -8,3 -2,2 -3,6 -3,11l0 27 -8 0 0 -31c0,-4 -1,-6 -2,-8 -1,-2 -3,-3 -6,-3 -2,0 -4,1 -6,2 -2,1 -3,3 -4,5 -1,2 -1,6 -1,10l0 24 -8 0z"/>
   <path id="20" class="fil2" d="M1082 727l17 -24 -16 -23 10 0 7 11c1,2 2,4 3,5 1,-2 3,-4 4,-5l8 -11 10 0 -16 23 17 24 -10 0 -10 -14 -2 -3 -13 18 -10 0z"/>
  </g>
 </g>
</svg>
