<?xml version="1.0" encoding="UTF-8"?>
<!DOCTYPE svg PUBLIC "-//W3C//DTD SVG 1.1//EN" "http://www.w3.org/Graphics/SVG/1.1/DTD/svg11.dtd">
<!-- Creator: CorelDRAW X6 -->
<svg xmlns="http://www.w3.org/2000/svg" xml:space="preserve" width="44.0058mm" height="24.5265mm" version="1.1" style="shape-rendering:geometricPrecision; text-rendering:geometricPrecision; image-rendering:optimizeQuality; fill-rule:evenodd; clip-rule:evenodd"
viewBox="0 0 2714 1513"
 xmlns:xlink="http://www.w3.org/1999/xlink">
 <defs>
  <style type="text/css">
   <![CDATA[
    .fil0 {fill:black}
   ]]>
  </style>
 </defs>
 <g id="Capa_x0020_1">
  <metadata id="CorelCorpID_0Corel-Layer"/>
  <g id="_641444192">
   <path class="fil0" d="M1511 1208l210 2c3,-187 0,-373 0,-559 0,-93 -3,-190 0,-282 6,-196 271,-199 273,-5 2,279 -6,570 0,846l222 0c3,-189 0,-377 0,-564 0,-90 -5,-194 0,-282 12,-191 281,-195 284,-5 5,280 -5,569 0,851l210 0c7,-213 0,-482 0,-705 0,-70 6,-169 -8,-234 -25,-117 -121,-214 -229,-246 -122,-36 -299,5 -354,100 -14,-8 -45,-40 -63,-54 -22,-17 -46,-31 -78,-42 -187,-64 -401,42 -456,235 -26,91 -13,353 -13,465 0,159 -2,320 0,479z"/>
   <path class="fil0" d="M164 716l207 0c0,-102 1,-203 1,-305 0,-75 9,-167 106,-195 36,-10 529,-5 607,-5 247,0 218,272 44,295 -64,8 -494,0 -608,2l0 209c83,1 594,-10 648,11 135,53 115,215 7,265 -50,23 -150,15 -211,15 -147,0 -295,-1 -442,0l-2 206c137,2 276,0 413,0 134,0 262,16 366,-46 73,-44 148,-129 167,-245 21,-127 -26,-251 -94,-308 9,-18 22,-29 36,-48 10,-14 23,-34 32,-52 19,-40 29,-90 31,-141 5,-119 -33,-188 -89,-250 -135,-148 -325,-119 -563,-119 -216,0 -434,-43 -561,116 -52,66 -90,134 -94,247 -3,114 -1,233 -1,347z"/>
   <path class="fil0" d="M159 1237l0 271 1825 5c27,-4 56,-2 83,-2 214,0 428,0 641,0l2 -260c-230,0 -2356,10 -2381,-4 5,-16 11,-13 29,-22 14,-7 23,-12 36,-21 70,-52 113,-144 100,-238 -38,-277 -433,-290 -490,-16 -19,92 19,194 85,244 21,16 51,30 70,44zm114 204l-34 -113 20 0 18 65 6 24c0,-1 2,-9 6,-23l18 -66 20 0 17 66 6 22 6 -22 20 -65 19 0 -35 113 -20 0 -18 -68 -5 -19 -23 87 -20 0zm157 0l-34 -113 20 0 18 65 6 24c0,-1 2,-9 6,-23l18 -66 20 0 17 66 6 22 6 -22 20 -65 19 0 -35 113 -20 0 -18 -68 -5 -19 -23 87 -20 0zm157 0l-34 -113 20 0 18 65 6 24c0,-1 2,-9 6,-23l18 -66 20 0 17 66 6 22 6 -22 20 -65 19 0 -35 113 -20 0 -18 -68 -5 -19 -23 87 -20 0zm130 0l0 -22 22 0 0 22 -22 0zm73 0l-18 0 0 -156 19 0 0 56c8,-10 18,-15 31,-15 7,0 14,1 20,4 6,3 11,7 15,12 4,5 7,11 9,18 2,7 3,15 3,23 0,19 -5,34 -14,45 -10,11 -21,16 -34,16 -13,0 -24,-6 -31,-17l0 14zm0 -57c0,13 2,23 6,29 6,10 14,15 24,15 8,0 16,-4 22,-11 6,-7 9,-18 9,-32 0,-15 -3,-26 -9,-33 -6,-7 -13,-11 -21,-11 -8,0 -16,4 -22,11 -6,7 -9,18 -9,31zm96 1c0,-21 6,-36 17,-46 10,-8 22,-13 36,-13 15,0 28,5 38,15 10,10 15,24 15,42 0,15 -2,26 -7,34 -4,8 -11,15 -19,19 -8,5 -17,7 -27,7 -16,0 -29,-5 -38,-15 -10,-10 -15,-25 -15,-44zm20 0c0,14 3,25 9,32 6,7 14,11 24,11 10,0 17,-4 24,-11 6,-7 9,-18 9,-33 0,-14 -3,-24 -10,-32 -6,-7 -14,-11 -24,-11 -10,0 -18,4 -24,11 -6,7 -9,18 -9,32zm108 56l0 -156 19 0 0 156 -19 0zm126 -37l20 3c-3,11 -9,20 -17,27 -8,6 -19,10 -32,10 -16,0 -30,-5 -39,-15 -10,-10 -14,-24 -14,-43 0,-19 5,-34 15,-44 10,-10 22,-16 38,-16 15,0 27,5 37,15 10,10 14,25 14,43 0,1 0,3 0,5l-84 0c1,12 4,22 11,28 6,7 14,10 24,10 7,0 13,-2 18,-6 5,-4 9,-10 12,-18zm-63 -31l63 0c-1,-9 -3,-17 -7,-21 -6,-7 -14,-11 -24,-11 -9,0 -16,3 -22,9 -6,6 -9,14 -10,24zm107 67l0 -113 17 0 0 16c4,-6 8,-10 14,-13 6,-3 13,-5 20,-5 8,0 15,2 21,5 5,3 9,8 11,15 9,-13 21,-20 35,-20 11,0 20,3 26,9 6,6 9,16 9,29l0 77 -19 0 0 -71c0,-8 -1,-13 -2,-16 -1,-3 -3,-6 -7,-8 -3,-2 -7,-3 -11,-3 -8,0 -15,3 -20,8 -5,5 -8,14 -8,25l0 66 -19 0 0 -73c0,-8 -2,-15 -5,-19 -3,-4 -8,-6 -15,-6 -5,0 -10,1 -15,4 -5,3 -8,7 -10,12 -2,5 -3,13 -3,24l0 59 -19 0zm255 -14c-7,6 -14,10 -21,13 -7,3 -14,4 -21,4 -12,0 -22,-3 -29,-9 -7,-6 -10,-14 -10,-23 0,-6 1,-11 4,-15 3,-5 6,-8 10,-11 4,-3 9,-5 14,-6 4,-1 9,-2 17,-3 15,-2 27,-4 34,-7 0,-3 0,-4 0,-5 0,-8 -2,-13 -5,-16 -5,-4 -12,-6 -22,-6 -9,0 -16,2 -20,5 -4,3 -7,9 -10,17l-19 -3c2,-8 4,-15 8,-19 4,-5 10,-9 17,-11 7,-3 16,-4 26,-4 10,0 18,1 24,3 6,2 10,5 13,9 3,3 5,8 6,13 1,3 1,9 1,18l0 25c0,18 0,29 1,34 1,5 2,9 5,14l-20 0c-2,-4 -3,-9 -4,-14zm-2 -42c-7,3 -17,5 -31,7 -8,1 -13,2 -17,4 -3,1 -6,3 -8,6 -2,3 -3,6 -3,9 0,5 2,9 6,13 4,3 10,5 17,5 7,0 14,-2 20,-5 6,-3 10,-8 13,-13 2,-4 3,-11 3,-19l0 -7zm90 39l3 17c-5,1 -10,2 -14,2 -7,0 -12,-1 -16,-3 -4,-2 -6,-5 -8,-9 -2,-4 -2,-11 -2,-23l0 -65 -14 0 0 -15 14 0 0 -28 19 -11 0 39 19 0 0 15 -19 0 0 66c0,5 0,9 1,11 1,2 2,3 3,4 2,1 4,1 7,1 2,0 5,0 8,-1zm19 -117l0 -22 19 0 0 22 -19 0zm0 134l0 -113 19 0 0 113 -19 0zm122 -41l19 3c-2,13 -7,23 -16,30 -8,7 -19,11 -31,11 -15,0 -28,-5 -37,-15 -9,-10 -14,-25 -14,-43 0,-12 2,-23 6,-32 4,-9 10,-16 18,-20 8,-5 17,-7 27,-7 12,0 22,3 30,9 8,6 13,15 15,26l-18 3c-2,-8 -5,-13 -9,-17 -4,-4 -10,-6 -16,-6 -10,0 -17,3 -24,10 -6,7 -9,18 -9,33 0,15 3,26 9,33 6,7 13,10 23,10 8,0 14,-2 19,-7 5,-5 8,-12 10,-21zm28 -15c0,-21 6,-36 17,-46 10,-8 22,-13 36,-13 15,0 28,5 38,15 10,10 15,24 15,42 0,15 -2,26 -7,34 -4,8 -11,15 -19,19 -8,5 -17,7 -27,7 -16,0 -29,-5 -38,-15 -10,-10 -15,-25 -15,-44zm20 0c0,14 3,25 9,32 6,7 14,11 24,11 10,0 17,-4 24,-11 6,-7 9,-18 9,-33 0,-14 -3,-24 -10,-32 -6,-7 -14,-11 -24,-11 -10,0 -18,4 -24,11 -6,7 -9,18 -9,32zm114 56l0 -22 22 0 0 22 -22 0zm129 -41l19 3c-2,13 -7,23 -16,30 -8,7 -19,11 -31,11 -15,0 -28,-5 -37,-15 -9,-10 -14,-25 -14,-43 0,-12 2,-23 6,-32 4,-9 10,-16 18,-20 8,-5 17,-7 27,-7 12,0 22,3 30,9 8,6 13,15 15,26l-18 3c-2,-8 -5,-13 -9,-17 -4,-4 -10,-6 -16,-6 -10,0 -17,3 -24,10 -6,7 -9,18 -9,33 0,15 3,26 9,33 6,7 13,10 23,10 8,0 14,-2 19,-7 5,-5 8,-12 10,-21zm28 -15c0,-21 6,-36 17,-46 10,-8 22,-13 36,-13 15,0 28,5 38,15 10,10 15,24 15,42 0,15 -2,26 -7,34 -4,8 -11,15 -19,19 -8,5 -17,7 -27,7 -16,0 -29,-5 -38,-15 -10,-10 -15,-25 -15,-44zm20 0c0,14 3,25 9,32 6,7 14,11 24,11 10,0 17,-4 24,-11 6,-7 9,-18 9,-33 0,-14 -3,-24 -10,-32 -6,-7 -14,-11 -24,-11 -10,0 -18,4 -24,11 -6,7 -9,18 -9,32zm109 56l0 -113 17 0 0 16c4,-6 8,-10 14,-13 6,-3 13,-5 20,-5 8,0 15,2 21,5 5,3 9,8 11,15 9,-13 21,-20 35,-20 11,0 20,3 26,9 6,6 9,16 9,29l0 77 -19 0 0 -71c0,-8 -1,-13 -2,-16 -1,-3 -3,-6 -7,-8 -3,-2 -7,-3 -11,-3 -8,0 -15,3 -20,8 -5,5 -8,14 -8,25l0 66 -19 0 0 -73c0,-8 -2,-15 -5,-19 -3,-4 -8,-6 -15,-6 -5,0 -10,1 -15,4 -5,3 -8,7 -10,12 -2,5 -3,13 -3,24l0 59 -19 0zm187 0l0 -22 22 0 0 22 -22 0zm55 0l0 -113 17 0 0 16c4,-6 8,-10 14,-13 6,-3 13,-5 20,-5 8,0 15,2 21,5 5,3 9,8 11,15 9,-13 21,-20 35,-20 11,0 20,3 26,9 6,6 9,16 9,29l0 77 -19 0 0 -71c0,-8 -1,-13 -2,-16 -1,-3 -3,-6 -7,-8 -3,-2 -7,-3 -11,-3 -8,0 -15,3 -20,8 -5,5 -8,14 -8,25l0 66 -19 0 0 -73c0,-8 -2,-15 -5,-19 -3,-4 -8,-6 -15,-6 -5,0 -10,1 -15,4 -5,3 -8,7 -10,12 -2,5 -3,13 -3,24l0 59 -19 0zm168 0l41 -58 -38 -54 24 0 18 27c3,5 6,9 8,12 3,-5 6,-9 9,-12l19 -27 23 0 -38 54 41 58 -23 0 -23 -35 -5 -8 -30 43 -23 0zm-2319 -597c-209,61 -117,369 86,313 73,-20 140,-101 113,-201 -20,-75 -98,-142 -198,-113z"/>
  </g>
 </g>
</svg>
