<?xml version="1.0" encoding="UTF-8"?>
<!DOCTYPE svg PUBLIC "-//W3C//DTD SVG 1.1//EN" "http://www.w3.org/Graphics/SVG/1.1/DTD/svg11.dtd">
<!-- Creator: CorelDRAW X6 -->
<svg xmlns="http://www.w3.org/2000/svg" xml:space="preserve" width="48.9374mm" height="31.1572mm" version="1.1" style="shape-rendering:geometricPrecision; text-rendering:geometricPrecision; image-rendering:optimizeQuality; fill-rule:evenodd; clip-rule:evenodd"
viewBox="0 0 3248 2068"
 xmlns:xlink="http://www.w3.org/1999/xlink">
 <defs>
  <style type="text/css">
   <![CDATA[
    .fil0 {fill:black}
    .fil1 {fill:black;fill-rule:nonzero}
   ]]>
  </style>
 </defs>
 <g id="Capa_x0020_1">
  <metadata id="CorelCorpID_0Corel-Layer"/>
  <g id="_643186912">
   <path class="fil0" d="M0 539l0 989c0,281 264,539 528,539l2197 0c186,0 382,-139 461,-292 21,-41 62,-132 62,-191l0 -1101c0,-83 -62,-200 -108,-263 -82,-110 -251,-221 -414,-221l-2197 0c-263,0 -528,258 -528,539zm250 1119l0 292 1964 5c29,-4 60,-2 89,-2 230,0 460,0 690,0l2 -280c-248,0 -2535,11 -2563,-5 6,-17 12,-14 32,-24 15,-7 25,-13 39,-23 76,-56 121,-155 107,-256 -41,-298 -466,-312 -527,-17 -21,99 21,209 91,263 22,17 55,32 75,47zm6 -560l223 0c0,-109 1,-219 1,-328 0,-81 9,-180 114,-209 38,-11 569,-5 654,-5 266,0 234,292 47,317 -68,9 -532,0 -654,2l0 225c89,1 640,-11 698,12 145,57 124,231 8,285 -54,25 -162,16 -228,16 -158,0 -317,-1 -475,0l-2 222c148,2 297,0 444,0 144,0 282,17 394,-50 78,-47 159,-138 180,-264 22,-137 -27,-270 -101,-331 10,-20 23,-31 39,-52 11,-15 25,-37 34,-56 21,-43 31,-97 33,-151 5,-128 -35,-202 -96,-269 -145,-159 -349,-128 -606,-128 -232,0 -467,-46 -603,125 -56,71 -97,144 -101,266 -4,122 -1,250 -1,373zm1449 529l226 2c3,-201 0,-402 0,-601 0,-100 -3,-204 0,-304 7,-211 292,-214 294,-6 3,300 -7,613 0,910l239 0c3,-203 0,-406 0,-606 0,-97 -5,-209 1,-304 13,-205 303,-210 306,-6 5,301 -6,612 0,916l226 0c7,-229 0,-518 0,-759 0,-75 6,-182 -9,-252 -27,-125 -130,-231 -246,-265 -131,-39 -322,5 -381,108 -16,-8 -48,-43 -68,-58 -24,-18 -49,-34 -84,-45 -201,-69 -432,45 -490,253 -28,98 -14,380 -14,501 0,171 -2,344 0,515z"/>
   <path class="fil0" d="M301 1236c-225,66 -126,397 92,337 78,-22 150,-108 121,-216 -22,-80 -105,-153 -213,-121z"/>
   <path class="fil1" d="M373 1878l-37 -122 22 0 19 70 7 26c0,-1 2,-10 6,-25l19 -71 21 0 18 71 6 23 7 -23 21 -70 20 0 -38 122 -21 0 -19 -73 -5 -21 -25 93 -22 0z"/>
   <path id="1" class="fil1" d="M542 1878l-37 -122 22 0 19 70 7 26c0,-1 2,-10 6,-25l19 -71 21 0 18 71 6 23 7 -23 21 -70 20 0 -38 122 -21 0 -19 -73 -5 -21 -25 93 -22 0z"/>
   <path id="2" class="fil1" d="M712 1878l-37 -122 22 0 19 70 7 26c0,-1 2,-10 6,-25l19 -71 21 0 18 71 6 23 7 -23 21 -70 20 0 -38 122 -21 0 -19 -73 -5 -21 -25 93 -22 0z"/>
   <polygon id="3" class="fil1" points="852,1878 852,1855 875,1855 875,1878 "/>
   <path id="4" class="fil1" d="M930 1878l-19 0 0 -168 21 0 0 60c9,-11 20,-16 33,-16 7,0 15,1 21,4 7,3 12,7 16,13 4,5 8,12 10,20 2,8 4,16 4,25 0,21 -5,37 -15,48 -10,11 -23,17 -37,17 -14,0 -26,-6 -34,-18l0 15zm0 -62c0,15 2,25 6,31 6,11 15,16 26,16 9,0 17,-4 23,-12 7,-8 10,-19 10,-35 0,-16 -3,-28 -9,-35 -6,-8 -14,-11 -23,-11 -9,0 -17,4 -23,12 -7,8 -10,19 -10,34z"/>
   <path id="5" class="fil1" d="M1033 1817c0,-22 6,-39 19,-50 10,-9 23,-13 38,-13 17,0 30,5 41,16 11,11 16,26 16,45 0,16 -2,28 -7,37 -5,9 -12,16 -20,21 -9,5 -19,7 -29,7 -17,0 -31,-5 -41,-16 -10,-11 -16,-27 -16,-47zm21 0c0,16 3,27 10,35 7,8 15,12 26,12 10,0 19,-4 26,-12 7,-8 10,-20 10,-35 0,-15 -3,-26 -10,-34 -7,-8 -15,-12 -25,-12 -10,0 -19,4 -26,12 -7,8 -10,19 -10,35z"/>
   <polygon id="6" class="fil1" points="1171,1878 1171,1711 1191,1711 1191,1878 "/>
   <path id="7" class="fil1" d="M1306 1839l21 3c-3,12 -10,22 -19,29 -9,7 -21,10 -35,10 -18,0 -32,-5 -42,-16 -10,-11 -16,-26 -16,-46 0,-20 5,-36 16,-47 10,-11 24,-17 41,-17 16,0 29,6 40,17 10,11 15,27 15,47 0,1 0,3 0,5l-90 0c1,13 5,24 11,31 7,7 15,11 25,11 8,0 14,-2 19,-6 5,-4 10,-10 13,-19zm-67 -33l68 0c-1,-10 -4,-18 -8,-23 -7,-8 -15,-12 -25,-12 -9,0 -17,3 -24,9 -6,6 -10,15 -11,25z"/>
   <path id="8" class="fil1" d="M1354 1878l0 -122 18 0 0 17c4,-6 9,-11 15,-14 6,-4 14,-5 22,-5 9,0 16,2 22,6 6,4 10,9 12,16 10,-14 22,-21 38,-21 12,0 21,3 28,10 7,7 10,17 10,31l0 83 -21 0 0 -76c0,-8 -1,-14 -2,-18 -1,-4 -4,-7 -7,-9 -4,-2 -8,-3 -12,-3 -9,0 -16,3 -21,9 -6,6 -8,15 -8,27l0 71 -21 0 0 -79c0,-9 -2,-16 -5,-21 -3,-5 -9,-7 -16,-7 -6,0 -11,2 -16,5 -5,3 -8,7 -11,13 -2,6 -3,14 -3,25l0 63 -21 0z"/>
   <path id="9" class="fil1" d="M1628 1863c-8,7 -15,11 -22,14 -7,3 -15,4 -23,4 -13,0 -24,-3 -31,-10 -7,-6 -11,-15 -11,-25 0,-6 1,-11 4,-16 3,-5 6,-9 11,-12 4,-3 9,-5 15,-7 4,-1 10,-2 18,-3 17,-2 29,-4 37,-7 0,-3 0,-5 0,-5 0,-8 -2,-14 -6,-18 -5,-5 -13,-7 -23,-7 -10,0 -17,2 -22,5 -5,3 -8,9 -10,18l-20 -3c2,-9 5,-16 9,-21 4,-5 10,-9 18,-12 8,-3 17,-4 28,-4 10,0 19,1 25,4 6,2 11,6 14,9 3,4 5,8 6,14 1,4 1,10 1,19l0 27c0,19 0,31 1,36 1,5 3,10 5,15l-22 0c-2,-4 -3,-9 -4,-15zm-2 -46c-7,3 -19,6 -34,8 -9,1 -15,3 -18,4 -4,2 -6,4 -8,7 -2,3 -3,6 -3,10 0,5 2,10 6,14 4,4 10,5 18,5 8,0 15,-2 21,-5 6,-3 11,-8 14,-14 2,-5 3,-11 3,-20l0 -7z"/>
   <path id="10" class="fil1" d="M1724 1860l3 18c-6,1 -11,2 -15,2 -7,0 -13,-1 -17,-4 -4,-2 -7,-5 -9,-9 -2,-4 -3,-12 -3,-24l0 -70 -15 0 0 -16 15 0 0 -30 21 -12 0 42 21 0 0 16 -21 0 0 71c0,6 0,10 1,11 1,2 2,3 4,4 2,1 4,1 7,1 2,0 5,0 9,-1z"/>
   <path id="11" class="fil1" d="M1744 1734l0 -23 21 0 0 23 -21 0zm0 144l0 -122 21 0 0 122 -21 0z"/>
   <path id="12" class="fil1" d="M1875 1834l20 3c-2,14 -8,25 -17,33 -9,8 -20,12 -34,12 -17,0 -30,-5 -40,-16 -10,-11 -15,-26 -15,-47 0,-13 2,-25 7,-34 4,-10 11,-17 20,-22 9,-5 18,-7 29,-7 13,0 24,3 32,10 8,7 14,16 16,28l-20 3c-2,-8 -5,-14 -10,-18 -5,-4 -11,-6 -18,-6 -10,0 -19,4 -25,11 -6,7 -10,19 -10,35 0,16 3,28 9,36 6,7 14,11 24,11 8,0 15,-2 20,-7 5,-5 9,-13 10,-23z"/>
   <path id="13" class="fil1" d="M1905 1817c0,-22 6,-39 19,-50 10,-9 23,-13 38,-13 17,0 30,5 41,16 11,11 16,26 16,45 0,16 -2,28 -7,37 -5,9 -12,16 -20,21 -9,5 -19,7 -29,7 -17,0 -31,-5 -41,-16 -10,-11 -16,-27 -16,-47zm21 0c0,16 3,27 10,35 7,8 15,12 26,12 10,0 19,-4 26,-12 7,-8 10,-20 10,-35 0,-15 -3,-26 -10,-34 -7,-8 -15,-12 -25,-12 -10,0 -19,4 -26,12 -7,8 -10,19 -10,35z"/>
   <polygon id="14" class="fil1" points="2049,1878 2049,1855 2072,1855 2072,1878 "/>
   <path id="15" class="fil1" d="M2188 1834l20 3c-2,14 -8,25 -17,33 -9,8 -20,12 -34,12 -17,0 -30,-5 -40,-16 -10,-11 -15,-26 -15,-47 0,-13 2,-25 7,-34 4,-10 11,-17 20,-22 9,-5 18,-7 29,-7 13,0 24,3 32,10 8,7 14,16 16,28l-20 3c-2,-8 -5,-14 -10,-18 -5,-4 -11,-6 -18,-6 -10,0 -19,4 -25,11 -6,7 -10,19 -10,35 0,16 3,28 9,36 6,7 14,11 24,11 8,0 15,-2 20,-7 5,-5 9,-13 10,-23z"/>
   <path id="16" class="fil1" d="M2218 1817c0,-22 6,-39 19,-50 10,-9 23,-13 38,-13 17,0 30,5 41,16 11,11 16,26 16,45 0,16 -2,28 -7,37 -5,9 -12,16 -20,21 -9,5 -19,7 -29,7 -17,0 -31,-5 -41,-16 -10,-11 -16,-27 -16,-47zm21 0c0,16 3,27 10,35 7,8 15,12 26,12 10,0 19,-4 26,-12 7,-8 10,-20 10,-35 0,-15 -3,-26 -10,-34 -7,-8 -15,-12 -25,-12 -10,0 -19,4 -26,12 -7,8 -10,19 -10,35z"/>
   <path id="17" class="fil1" d="M2355 1878l0 -122 18 0 0 17c4,-6 9,-11 15,-14 6,-4 14,-5 22,-5 9,0 16,2 22,6 6,4 10,9 12,16 10,-14 22,-21 38,-21 12,0 21,3 28,10 7,7 10,17 10,31l0 83 -21 0 0 -76c0,-8 -1,-14 -2,-18 -1,-4 -4,-7 -7,-9 -4,-2 -8,-3 -12,-3 -9,0 -16,3 -21,9 -6,6 -8,15 -8,27l0 71 -21 0 0 -79c0,-9 -2,-16 -5,-21 -3,-5 -9,-7 -16,-7 -6,0 -11,2 -16,5 -5,3 -8,7 -11,13 -2,6 -3,14 -3,25l0 63 -21 0z"/>
   <polygon id="18" class="fil1" points="2556,1878 2556,1855 2580,1855 2580,1878 "/>
   <path id="19" class="fil1" d="M2616 1878l0 -122 18 0 0 17c4,-6 9,-11 15,-14 6,-4 14,-5 22,-5 9,0 16,2 22,6 6,4 10,9 12,16 10,-14 22,-21 38,-21 12,0 21,3 28,10 7,7 10,17 10,31l0 83 -21 0 0 -76c0,-8 -1,-14 -2,-18 -1,-4 -4,-7 -7,-9 -4,-2 -8,-3 -12,-3 -9,0 -16,3 -21,9 -6,6 -8,15 -8,27l0 71 -21 0 0 -79c0,-9 -2,-16 -5,-21 -3,-5 -9,-7 -16,-7 -6,0 -11,2 -16,5 -5,3 -8,7 -11,13 -2,6 -3,14 -3,25l0 63 -21 0z"/>
   <path id="20" class="fil1" d="M2797 1878l44 -63 -41 -59 25 0 19 29c4,5 6,10 8,13 3,-5 7,-9 9,-13l20 -29 25 0 -41 59 44 63 -25 0 -25 -37 -6 -9 -32 46 -25 0z"/>
  </g>
 </g>
</svg>
