<?xml version="1.0" encoding="UTF-8"?>
<!DOCTYPE svg PUBLIC "-//W3C//DTD SVG 1.1//EN" "http://www.w3.org/Graphics/SVG/1.1/DTD/svg11.dtd">
<!-- Creator: CorelDRAW X6 -->
<svg xmlns="http://www.w3.org/2000/svg" xml:space="preserve" width="44.0058mm" height="24.5265mm" version="1.1" style="shape-rendering:geometricPrecision; text-rendering:geometricPrecision; image-rendering:optimizeQuality; fill-rule:evenodd; clip-rule:evenodd"
viewBox="0 0 4239 2363"
 xmlns:xlink="http://www.w3.org/1999/xlink">
 <defs>
  <style type="text/css">
   <![CDATA[
    .fil0 {fill:#FEFEFE}
   ]]>
  </style>
 </defs>
 <g id="Capa_x0020_1">
  <metadata id="CorelCorpID_0Corel-Layer"/>
  <g id="_643191856">
   <path class="fil0" d="M2359 1886l328 3c4,-291 0,-583 0,-872 0,-145 -4,-297 0,-441 10,-306 424,-311 427,-8 4,436 -9,890 0,1321l346 0c4,-295 0,-589 0,-880 0,-140 -8,-303 1,-441 18,-298 439,-305 444,-8 7,437 -9,888 0,1329l328 1c10,-333 1,-752 1,-1101 0,-109 9,-264 -13,-366 -39,-182 -188,-335 -357,-384 -190,-56 -467,8 -553,157 -23,-12 -70,-62 -99,-84 -35,-26 -72,-49 -122,-66 -292,-100 -626,66 -711,367 -40,143 -21,552 -21,727 0,248 -3,499 0,747z"/>
   <path class="fil0" d="M257 1118l324 0c0,-159 1,-318 1,-477 0,-117 13,-261 166,-304 55,-16 826,-7 949,-7 386,0 340,424 68,460 -99,13 -772,0 -949,3l0 327c130,1 928,-16 1012,17 211,83 180,335 11,413 -78,36 -234,24 -330,24 -230,0 -460,-2 -690,0l-3 322c215,3 431,0 645,0 209,0 409,25 571,-72 114,-68 231,-201 261,-383 33,-199 -40,-392 -147,-481 14,-29 34,-46 56,-75 16,-21 36,-53 50,-81 30,-62 45,-141 49,-219 8,-185 -51,-293 -140,-390 -211,-231 -507,-186 -879,-186 -337,0 -678,-67 -876,182 -82,103 -141,209 -146,386 -5,178 -1,363 -1,542z"/>
   <path class="fil0" d="M248 1932l0 423 2851 8c42,-6 87,-3 130,-3 334,0 668,0 1002,0l3 -406c-360,0 -3680,16 -3719,-7 8,-25 17,-20 46,-34 21,-10 36,-19 56,-33 110,-81 176,-225 156,-372 -60,-433 -676,-453 -765,-25 -30,144 30,304 132,381 32,25 80,47 109,69zm178 319l-53 -176 31 0 28 102 10 38c0,-2 3,-14 9,-36l28 -103 31 0 27 102 9 34 10 -34 30 -102 29 0 -55 176 -31 0 -28 -106 -7 -30 -36 136 -32 0zm245 0l-53 -176 31 0 28 102 10 38c0,-2 3,-14 9,-36l28 -103 31 0 27 102 9 34 10 -34 30 -102 29 0 -55 176 -31 0 -28 -106 -7 -30 -36 136 -32 0zm245 0l-53 -176 31 0 28 102 10 38c0,-2 3,-14 9,-36l28 -103 31 0 27 102 9 34 10 -34 30 -102 29 0 -55 176 -31 0 -28 -106 -7 -30 -36 136 -32 0zm203 0l0 -34 34 0 0 34 -34 0zm113 0l-28 0 0 -243 30 0 0 87c13,-16 29,-24 48,-24 11,0 21,2 31,7 10,4 18,11 24,18 6,8 11,17 15,29 4,11 5,23 5,36 0,30 -7,53 -22,70 -15,16 -33,25 -54,25 -21,0 -37,-9 -49,-26l0 22zm0 -89c0,21 3,36 9,46 9,15 22,23 38,23 13,0 24,-6 34,-17 10,-11 14,-28 14,-51 0,-23 -5,-40 -14,-51 -9,-11 -20,-16 -33,-16 -13,0 -24,6 -34,17 -10,11 -14,28 -14,49zm151 1c0,-33 9,-57 27,-72 15,-13 34,-20 55,-20 24,0 44,8 59,24 15,16 23,38 23,66 0,23 -3,40 -10,53 -7,13 -17,23 -30,30 -13,7 -27,11 -43,11 -25,0 -45,-8 -60,-24 -15,-16 -23,-39 -23,-68zm31 0c0,23 5,39 15,51 10,11 22,17 37,17 15,0 27,-6 37,-17 10,-11 15,-28 15,-51 0,-22 -5,-38 -15,-49 -10,-11 -22,-17 -37,-17 -15,0 -27,6 -37,17 -10,11 -15,28 -15,50zm169 88l0 -243 30 0 0 243 -30 0zm196 -57l31 4c-5,18 -14,32 -27,42 -13,10 -30,15 -50,15 -26,0 -46,-8 -61,-24 -15,-16 -23,-38 -23,-67 0,-30 8,-53 23,-69 15,-16 35,-25 59,-25 24,0 43,8 58,24 15,16 22,39 22,68 0,2 0,4 0,8l-131 0c1,19 7,34 16,44 10,10 22,15 37,15 11,0 20,-3 28,-9 8,-6 14,-15 18,-28zm-98 -48l98 0c-1,-15 -5,-26 -11,-33 -9,-11 -22,-17 -37,-17 -14,0 -25,5 -35,14 -9,9 -14,21 -15,37zm167 105l0 -176 27 0 0 25c5,-9 13,-16 22,-21 9,-5 20,-8 31,-8 13,0 24,3 32,8 8,5 14,13 18,23 14,-21 32,-31 55,-31 18,0 31,5 40,14 9,10 14,25 14,45l0 121 -30 0 0 -111c0,-12 -1,-20 -3,-26 -2,-5 -5,-9 -11,-13 -5,-3 -11,-5 -18,-5 -12,0 -23,4 -31,12 -8,8 -12,21 -12,40l0 102 -30 0 0 -114c0,-13 -2,-23 -7,-30 -5,-7 -13,-10 -24,-10 -8,0 -16,2 -23,7 -7,4 -12,11 -16,19 -3,8 -5,21 -5,37l0 91 -30 0zm398 -22c-11,9 -22,16 -32,20 -10,4 -21,6 -33,6 -19,0 -34,-5 -45,-14 -10,-9 -16,-21 -16,-36 0,-9 2,-16 6,-24 4,-7 9,-13 15,-17 6,-4 14,-8 22,-10 6,-2 15,-3 27,-4 24,-3 42,-6 53,-10 0,-4 0,-7 0,-8 0,-12 -3,-21 -8,-26 -8,-7 -19,-10 -34,-10 -14,0 -25,2 -31,7 -7,5 -12,14 -15,26l-29 -4c3,-13 7,-23 13,-30 6,-8 15,-14 27,-18 11,-4 25,-6 40,-6 15,0 27,2 37,5 9,4 16,8 21,13 4,5 8,12 9,20 1,5 1,14 1,27l0 40c0,28 1,45 2,53 1,7 4,14 7,21l-31 0c-3,-6 -5,-14 -6,-22zm-2 -66c-11,4 -27,8 -49,11 -12,2 -21,4 -26,6 -5,2 -9,5 -12,10 -3,4 -4,9 -4,14 0,8 3,14 9,20 6,5 15,8 26,8 12,0 22,-2 31,-8 9,-5 16,-12 20,-20 3,-7 5,-17 5,-30l0 -11zm141 62l4 26c-8,2 -16,3 -22,3 -11,0 -19,-2 -25,-5 -6,-3 -10,-8 -13,-14 -2,-6 -4,-17 -4,-35l0 -102 -22 0 0 -23 22 0 0 -44 30 -18 0 62 30 0 0 23 -30 0 0 103c0,9 1,14 2,16 1,2 3,4 5,6 2,1 6,2 10,2 3,0 8,0 13,-1zm30 -183l0 -34 30 0 0 34 -30 0zm0 209l0 -176 30 0 0 176 -30 0zm191 -65l29 4c-3,20 -11,36 -25,47 -13,11 -29,17 -49,17 -24,0 -43,-8 -58,-24 -15,-16 -22,-38 -22,-68 0,-19 3,-36 9,-50 6,-14 16,-25 29,-32 13,-7 27,-11 42,-11 19,0 35,5 47,14 12,10 20,23 23,41l-29 4c-3,-12 -8,-21 -15,-27 -7,-6 -16,-9 -25,-9 -15,0 -27,5 -37,16 -9,11 -14,28 -14,51 0,24 5,41 14,52 9,11 21,16 36,16 12,0 22,-4 29,-11 8,-7 13,-18 15,-33zm43 -24c0,-33 9,-57 27,-72 15,-13 34,-20 55,-20 24,0 44,8 59,24 15,16 23,38 23,66 0,23 -3,40 -10,53 -7,13 -17,23 -30,30 -13,7 -27,11 -43,11 -25,0 -45,-8 -60,-24 -15,-16 -23,-39 -23,-68zm31 0c0,23 5,39 15,51 10,11 22,17 37,17 15,0 27,-6 37,-17 10,-11 15,-28 15,-51 0,-22 -5,-38 -15,-49 -10,-11 -22,-17 -37,-17 -15,0 -27,6 -37,17 -10,11 -15,28 -15,50zm178 88l0 -34 34 0 0 34 -34 0zm201 -65l29 4c-3,20 -11,36 -25,47 -13,11 -29,17 -49,17 -24,0 -43,-8 -58,-24 -15,-16 -22,-38 -22,-68 0,-19 3,-36 9,-50 6,-14 16,-25 29,-32 13,-7 27,-11 42,-11 19,0 35,5 47,14 12,10 20,23 23,41l-29 4c-3,-12 -8,-21 -15,-27 -7,-6 -16,-9 -25,-9 -15,0 -27,5 -37,16 -9,11 -14,28 -14,51 0,24 5,41 14,52 9,11 21,16 36,16 12,0 22,-4 29,-11 8,-7 13,-18 15,-33zm43 -24c0,-33 9,-57 27,-72 15,-13 34,-20 55,-20 24,0 44,8 59,24 15,16 23,38 23,66 0,23 -3,40 -10,53 -7,13 -17,23 -30,30 -13,7 -27,11 -43,11 -25,0 -45,-8 -60,-24 -15,-16 -23,-39 -23,-68zm31 0c0,23 5,39 15,51 10,11 22,17 37,17 15,0 27,-6 37,-17 10,-11 15,-28 15,-51 0,-22 -5,-38 -15,-49 -10,-11 -22,-17 -37,-17 -15,0 -27,6 -37,17 -10,11 -15,28 -15,50zm170 88l0 -176 27 0 0 25c5,-9 13,-16 22,-21 9,-5 20,-8 31,-8 13,0 24,3 32,8 8,5 14,13 18,23 14,-21 32,-31 55,-31 18,0 31,5 40,14 9,10 14,25 14,45l0 121 -30 0 0 -111c0,-12 -1,-20 -3,-26 -2,-5 -5,-9 -11,-13 -5,-3 -11,-5 -18,-5 -12,0 -23,4 -31,12 -8,8 -12,21 -12,40l0 102 -30 0 0 -114c0,-13 -2,-23 -7,-30 -5,-7 -13,-10 -24,-10 -8,0 -16,2 -23,7 -7,4 -12,11 -16,19 -3,8 -5,21 -5,37l0 91 -30 0zm292 0l0 -34 34 0 0 34 -34 0zm86 0l0 -176 27 0 0 25c5,-9 13,-16 22,-21 9,-5 20,-8 31,-8 13,0 24,3 32,8 8,5 14,13 18,23 14,-21 32,-31 55,-31 18,0 31,5 40,14 9,10 14,25 14,45l0 121 -30 0 0 -111c0,-12 -1,-20 -3,-26 -2,-5 -5,-9 -11,-13 -5,-3 -11,-5 -18,-5 -12,0 -23,4 -31,12 -8,8 -12,21 -12,40l0 102 -30 0 0 -114c0,-13 -2,-23 -7,-30 -5,-7 -13,-10 -24,-10 -8,0 -16,2 -23,7 -7,4 -12,11 -16,19 -3,8 -5,21 -5,37l0 91 -30 0zm263 0l64 -91 -60 -85 37 0 28 42c5,8 9,14 12,19 5,-7 10,-13 14,-19l29 -42 37 0 -60 85 64 91 -36 0 -36 -54 -8 -13 -47 67 -37 0zm-3622 -932c-327,95 -182,576 134,489 114,-31 218,-157 176,-313 -32,-117 -153,-222 -310,-176z"/>
  </g>
 </g>
</svg>
