<?xml version="1.0" encoding="UTF-8"?>
<!DOCTYPE svg PUBLIC "-//W3C//DTD SVG 1.1//EN" "http://www.w3.org/Graphics/SVG/1.1/DTD/svg11.dtd">
<!-- Creator: CorelDRAW X6 -->
<svg xmlns="http://www.w3.org/2000/svg" xml:space="preserve" width="33.6628mm" height="31.1573mm" version="1.1" style="shape-rendering:geometricPrecision; text-rendering:geometricPrecision; image-rendering:optimizeQuality; fill-rule:evenodd; clip-rule:evenodd"
viewBox="0 0 651 602"
 xmlns:xlink="http://www.w3.org/1999/xlink">
 <defs>
  <style type="text/css">
   <![CDATA[
    .fil0 {fill:#010302}
    .fil2 {fill:#020202}
    .fil1 {fill:#030303}
   ]]>
  </style>
 </defs>
 <g id="Capa_x0020_1">
  <metadata id="CorelCorpID_0Corel-Layer"/>
  <g id="_310204576">
   <path class="fil0" d="M650 396c0,1 0,0 0,1l-18 23c-9,11 -15,18 -25,28 -9,10 -26,26 -37,35 -66,57 -149,85 -241,93 -29,3 -49,3 -76,-3 -21,-5 -43,-14 -59,-24 -117,-70 -146,-227 -111,-362 6,-21 14,-41 24,-59 7,-14 20,-31 31,-42 16,-17 33,-29 54,-39 80,-39 194,-24 268,21 11,7 27,18 36,26 13,12 18,16 31,31 3,4 6,7 9,12 15,19 28,43 37,67 8,20 14,44 16,68 2,22 3,57 -1,79 -3,20 -11,36 -24,49 -2,2 -4,3 -5,5 -3,3 -22,20 -26,9 -5,-10 21,-87 24,-99 3,-11 6,-22 10,-32 3,-10 7,-24 4,-36 -3,-11 -13,-16 -27,-13 -10,2 -20,8 -28,13 -5,3 -16,11 -21,16l-24 23c1,-7 4,-15 6,-23 1,-8 2,-17 -2,-24 -7,-12 -31,-3 -41,3 -9,5 -17,11 -25,17 -3,2 -5,4 -8,6 -4,4 -26,23 -29,27 0,-5 3,-16 5,-21 4,-15 13,-35 -1,-37 -7,-1 -16,2 -22,4 -22,9 -35,19 -51,33l-10 9c1,1 6,8 7,10 2,-1 36,-36 42,-26 3,4 -10,51 -12,59l-20 87c-2,9 -5,20 -7,29l35 0c1,-8 4,-17 6,-25 2,-8 4,-17 6,-25 6,-26 13,-70 32,-89 5,-5 9,-10 16,-15 6,-5 32,-27 39,-17 3,4 -2,19 -3,24 -4,16 -8,32 -12,49 -4,16 -8,32 -12,49 -2,9 -11,43 -12,49l35 0c6,-30 17,-69 25,-100 5,-17 10,-29 20,-42 2,-2 3,-4 5,-5 2,-2 3,-3 5,-5 7,-7 51,-42 43,-5 -5,24 -20,71 -27,97 -6,20 -14,54 4,66 9,6 23,-1 31,-6 27,-16 46,-38 55,-69 12,-43 8,-106 -4,-147 -14,-46 -32,-78 -57,-108 -11,-13 -28,-31 -41,-42 -15,-12 -30,-23 -49,-33 -39,-21 -78,-32 -129,-35 -92,-3 -173,31 -232,94l-10 11c-13,15 -30,40 -39,58 -28,55 -40,114 -30,185 6,42 24,87 46,121 15,22 32,42 51,59 10,8 20,16 32,24 34,23 77,40 120,46 47,7 109,5 154,-5 31,-7 56,-16 82,-29 41,-21 78,-52 107,-87 4,-5 8,-10 12,-15 15,-20 26,-37 39,-58 1,-2 2,-3 3,-5 2,-4 2,-3 1,-4z"/>
   <path class="fil0" d="M205 258c20,-3 26,21 26,39 0,21 -4,38 -9,56 -8,25 -29,72 -61,71 -10,0 -17,-6 -21,-12 -6,-7 -6,-17 -6,-28 2,-33 15,-73 33,-99 8,-12 23,-26 38,-28zm-45 14c0,-4 13,-57 15,-63 5,-21 10,-41 16,-61 5,-16 14,-46 11,-64 -1,-5 -3,-11 -9,-9 -20,7 -38,75 -43,92 -10,36 -21,88 -29,126 -5,21 -10,42 -14,63 -4,21 -9,47 2,65 18,27 54,25 83,9 4,-2 8,-5 12,-8 2,-1 4,-3 6,-4 31,-26 52,-66 58,-106 3,-21 4,-51 -8,-66 -23,-31 -68,-5 -90,17l-10 10z"/>
   <path class="fil1" d="M515 496c0,-14 -2,-24 8,-23 3,5 2,17 2,23l8 0c0,-5 0,-11 0,-16 1,-9 8,-9 9,-5 1,2 0,18 0,21 4,0 4,0 8,0l0 -4c0,-9 2,-22 -6,-25 -6,-2 -10,1 -12,4 -2,-2 -3,-4 -9,-4 -4,0 -6,2 -8,4 0,-4 1,-4 -7,-3l0 29 8 0z"/>
   <path class="fil0" d="M259 496c0,-5 0,-10 0,-14 0,-4 0,-9 5,-9 5,0 4,5 4,9 0,5 0,9 0,14l8 0c0,-7 -2,-23 5,-23 5,0 4,5 4,9 0,5 0,9 0,14l8 0c0,-14 3,-29 -10,-29 -4,0 -7,3 -9,4 -3,-2 -3,-4 -9,-4 -4,0 -6,2 -8,4 0,-2 0,-2 -1,-3l-7 0 0 29 8 0z"/>
   <path class="fil1" d="M150 473c10,-3 10,15 4,17 -5,2 -8,-2 -8,-7 -1,-5 0,-9 4,-11zm-5 19c2,1 2,3 6,4 9,2 14,-5 15,-14 0,-6 -2,-12 -6,-14 -6,-4 -11,-1 -14,2l0 -14 -7 0 0 40 7 0 0 -4z"/>
   <path class="fil1" d="M486 473c10,-2 11,15 3,17 -10,2 -11,-15 -3,-17zm-13 12c3,18 33,14 29,-7 -3,-17 -33,-15 -29,7z"/>
   <path class="fil1" d="M407 473c10,-3 11,15 3,17 -10,2 -12,-14 -3,-17zm-13 10c2,19 31,17 29,-4 -2,-19 -31,-17 -29,4z"/>
   <path class="fil1" d="M179 484c-3,-13 11,-16 13,-6 3,13 -11,16 -13,6zm-8 0c3,19 32,15 29,-6 -3,-18 -32,-16 -29,6z"/>
   <path class="fil1" d="M316 482c3,18 -24,3 0,0zm-10 -6c1,-3 2,-4 6,-3 3,0 4,2 4,5 -7,3 -18,1 -18,12 1,9 13,9 18,4l1 3 7 0c-2,-6 -2,-8 -2,-14 0,-5 0,-10 -3,-13 -4,-3 -19,-5 -21,6l7 1z"/>
   <path class="fil1" d="M238 479l-11 0c0,-4 1,-7 5,-7 4,0 5,3 6,6zm0 8c-2,2 -2,5 -7,4 -3,-1 -4,-4 -4,-7l19 0c3,-20 -22,-23 -26,-7 -5,24 24,24 26,11l-7 -1z"/>
   <path class="fil1" d="M382 485c-2,3 -2,6 -7,5 -3,-1 -4,-4 -4,-8 -1,-12 9,-12 11,-5l7 -1c-2,-13 -27,-14 -26,7 1,18 25,18 27,4l-7 -1z"/>
   <path class="fil1" d="M461 485c-1,8 -11,7 -11,-3 0,-4 0,-8 4,-9 5,-2 6,1 8,4l7 -1c-1,-12 -27,-15 -26,7 1,18 24,19 27,4l-8 -1z"/>
   <path class="fil1" d="M329 473c0,0 0,0 0,0l2 1c1,17 -3,25 14,22l-1 -6c-5,0 -5,2 -5,-5 0,-4 0,-8 0,-11l5 0 0 -6 -5 0 0 -10c-1,0 -6,3 -8,4l0 5 -3 0 0 6 1 0z"/>
   <polygon class="fil2" points="206,496 213,496 213,456 206,456 "/>
   <polygon class="fil2" points="349,496 353,496 357,496 357,491 357,470 357,467 349,467 349,470 349,493 "/>
   <polygon class="fil1" points="428,496 436,496 436,488 429,488 "/>
   <polygon class="fil1" points="349,463 357,463 357,456 349,456 "/>
  </g>
 </g>
</svg>
