<?xml version="1.0" encoding="UTF-8"?>
<!DOCTYPE svg PUBLIC "-//W3C//DTD SVG 1.1//EN" "http://www.w3.org/Graphics/SVG/1.1/DTD/svg11.dtd">
<!-- Creator: CorelDRAW X6 -->
<svg xmlns="http://www.w3.org/2000/svg" xml:space="preserve" width="48.9374mm" height="31.1572mm" version="1.1" style="shape-rendering:geometricPrecision; text-rendering:geometricPrecision; image-rendering:optimizeQuality; fill-rule:evenodd; clip-rule:evenodd"
viewBox="0 0 5877 3741"
 xmlns:xlink="http://www.w3.org/1999/xlink">
 <defs>
  <style type="text/css">
   <![CDATA[
    .fil0 {fill:#FEFEFE}
    .fil1 {fill:#FEFEFE;fill-rule:nonzero}
   ]]>
  </style>
 </defs>
 <g id="Capa_x0020_1">
  <metadata id="CorelCorpID_0Corel-Layer"/>
  <g id="_310209256">
   <path class="fil0" d="M0 976l0 1789c0,509 478,976 956,976l3975 0c336,0 690,-251 834,-529 38,-74 112,-239 112,-346l0 -1993c0,-149 -111,-361 -196,-475 -148,-199 -453,-399 -750,-399l-3975 0c-477,0 -956,466 -956,976zm453 2025l0 528 3554 10c53,-8 108,-4 162,-4 416,0 832,1 1249,0l4 -506c-449,-1 -4587,20 -4637,-9 11,-31 21,-25 57,-43 27,-13 45,-23 70,-42 137,-101 219,-280 194,-464 -74,-540 -843,-564 -953,-31 -37,179 38,379 165,475 40,31 100,59 135,86zm10 -1014l404 0c1,-198 1,-396 1,-594 0,-146 17,-325 207,-379 69,-20 1030,-9 1183,-9 481,0 424,529 85,574 -124,16 -962,0 -1183,4l0 407c162,2 1157,-20 1262,21 263,104 224,418 14,515 -98,45 -292,30 -412,30 -286,0 -574,-3 -860,0l-4 401c268,4 537,0 804,0 261,0 510,31 712,-90 142,-85 288,-250 325,-478 41,-248 -50,-489 -184,-600 17,-36 42,-57 70,-94 20,-26 45,-67 62,-101 37,-77 56,-176 60,-274 9,-231 -64,-365 -174,-486 -263,-287 -632,-232 -1096,-232 -420,0 -845,-84 -1092,226 -102,128 -176,260 -182,482 -6,221 -1,453 -1,675zm2621 958l409 3c5,-363 0,-727 0,-1087 0,-181 -6,-370 0,-549 12,-382 528,-387 532,-10 5,544 -12,1109 1,1647l432 0c5,-367 0,-734 0,-1097 0,-175 -10,-378 1,-549 23,-371 548,-380 554,-10 9,545 -11,1108 1,1657l408 1c13,-415 1,-938 1,-1372 0,-136 12,-329 -16,-456 -49,-227 -235,-417 -445,-479 -237,-70 -582,9 -690,195 -28,-15 -87,-77 -123,-104 -43,-33 -89,-61 -152,-82 -364,-124 -781,82 -887,458 -50,178 -26,688 -26,906 0,310 -4,622 0,932z"/>
   <path class="fil0" d="M544 2236c-407,119 -227,719 167,610 142,-39 272,-196 219,-391 -40,-146 -190,-276 -386,-219z"/>
   <path class="fil1" d="M676 3398l-66 -220 39 0 35 127 12 47c0,-2 4,-17 11,-45l35 -129 38 0 33 128 11 42 13 -42 38 -127 36 0 -69 220 -39 0 -35 -132 -9 -38 -44 169 -39 0z"/>
   <path id="1" class="fil1" d="M981 3398l-66 -220 39 0 35 127 12 47c0,-2 4,-17 11,-45l35 -129 38 0 33 128 11 42 13 -42 38 -127 36 0 -69 220 -39 0 -35 -132 -9 -38 -44 169 -39 0z"/>
   <path id="2" class="fil1" d="M1287 3398l-66 -220 39 0 35 127 12 47c0,-2 4,-17 11,-45l35 -129 38 0 33 128 11 42 13 -42 38 -127 36 0 -69 220 -39 0 -35 -132 -9 -38 -44 169 -39 0z"/>
   <polygon id="3" class="fil1" points="1541,3398 1541,3356 1583,3356 1583,3398 "/>
   <path id="4" class="fil1" d="M1682 3398l-35 0 0 -303 37 0 0 108c16,-20 36,-29 60,-29 13,0 26,3 38,8 12,5 22,13 30,23 8,10 14,22 18,36 4,14 7,29 7,45 0,38 -9,67 -28,87 -19,21 -41,31 -67,31 -26,0 -46,-11 -61,-32l0 28zm0 -112c0,26 4,45 11,57 12,19 28,29 48,29 16,0 30,-7 42,-21 12,-14 18,-35 18,-63 0,-29 -6,-50 -17,-63 -11,-14 -25,-20 -41,-20 -16,0 -30,7 -42,21 -12,14 -18,35 -18,61z"/>
   <path id="5" class="fil1" d="M1870 3288c0,-41 11,-71 34,-90 19,-16 42,-24 69,-24 30,0 55,10 74,30 19,20 29,47 29,82 0,28 -4,50 -13,67 -8,16 -21,29 -37,38 -16,9 -34,13 -53,13 -31,0 -56,-10 -75,-30 -19,-20 -28,-48 -28,-85zm38 0c0,28 6,49 18,63 12,14 28,21 47,21 19,0 34,-7 46,-21 12,-14 18,-35 18,-64 0,-27 -6,-48 -19,-62 -12,-14 -28,-21 -46,-21 -19,0 -34,7 -47,21 -12,14 -18,35 -18,63z"/>
   <polygon id="6" class="fil1" points="2118,3398 2118,3095 2156,3095 2156,3398 "/>
   <path id="7" class="fil1" d="M2363 3327l39 5c-6,22 -17,40 -34,52 -16,12 -37,19 -63,19 -32,0 -57,-10 -76,-30 -19,-20 -28,-47 -28,-83 0,-37 9,-66 28,-86 19,-20 44,-31 74,-31 29,0 53,10 72,30 19,20 28,48 28,84 0,2 0,6 0,10l-164 0c1,24 8,43 20,55 12,13 28,19 46,19 14,0 25,-4 35,-11 10,-7 17,-19 23,-35zm-122 -60l122 0c-2,-18 -6,-32 -14,-42 -12,-14 -27,-22 -46,-22 -17,0 -31,6 -43,17 -12,11 -18,27 -19,46z"/>
   <path id="8" class="fil1" d="M2449 3398l0 -220 33 0 0 31c7,-11 16,-19 27,-26 11,-7 24,-10 39,-10 16,0 30,3 40,10 10,7 18,16 22,28 18,-26 40,-38 68,-38 22,0 39,6 50,18 12,12 18,31 18,56l0 151 -37 0 0 -138c0,-15 -1,-26 -4,-32 -2,-7 -7,-12 -13,-16 -6,-4 -14,-6 -22,-6 -16,0 -28,5 -39,15 -10,10 -15,27 -15,49l0 128 -37 0 0 -143c0,-17 -3,-29 -9,-37 -6,-8 -16,-12 -30,-12 -10,0 -20,3 -29,8 -9,6 -15,14 -19,24 -4,11 -6,26 -6,46l0 114 -37 0z"/>
   <path id="9" class="fil1" d="M2946 3371c-14,12 -27,20 -40,25 -13,5 -26,7 -41,7 -24,0 -43,-6 -56,-18 -13,-12 -19,-27 -19,-45 0,-11 2,-21 7,-29 5,-9 11,-16 19,-21 8,-5 17,-9 27,-12 7,-2 18,-4 33,-6 30,-4 52,-8 67,-13 0,-5 0,-8 0,-10 0,-15 -4,-26 -11,-32 -10,-8 -24,-13 -42,-13 -18,0 -31,3 -39,9 -8,6 -15,17 -19,33l-36 -5c3,-16 9,-28 16,-38 8,-10 19,-17 33,-22 14,-5 31,-8 50,-8 19,0 34,2 46,7 12,4 20,10 26,17 6,7 9,15 12,25 1,6 2,18 2,34l0 49c0,35 1,56 2,66 1,9 5,18 9,27l-39 0c-4,-8 -6,-17 -7,-28zm-3 -83c-14,6 -34,10 -61,14 -15,2 -26,5 -33,7 -6,3 -11,7 -15,12 -3,5 -5,11 -5,18 0,10 4,18 11,25 8,7 19,10 33,10 14,0 27,-3 38,-9 11,-6 19,-15 25,-26 4,-8 6,-21 6,-37l0 -14z"/>
   <path id="10" class="fil1" d="M3118 3365l5 33c-10,2 -20,3 -28,3 -13,0 -24,-2 -31,-6 -7,-4 -13,-10 -16,-17 -3,-7 -5,-22 -5,-44l0 -127 -28 0 0 -29 28 0 0 -54 37 -22 0 77 37 0 0 29 -37 0 0 129c0,11 1,18 2,21 1,3 3,5 6,7 3,2 7,3 13,3 4,0 10,0 16,-1z"/>
   <path id="11" class="fil1" d="M3155 3137l0 -42 37 0 0 42 -37 0zm0 261l0 -220 37 0 0 220 -37 0z"/>
   <path id="12" class="fil1" d="M3393 3318l36 5c-4,25 -14,45 -31,59 -16,14 -37,21 -61,21 -30,0 -54,-10 -72,-29 -18,-20 -27,-48 -27,-84 0,-24 4,-44 12,-62 8,-18 20,-31 36,-40 16,-9 33,-13 52,-13 24,0 43,6 58,18 15,12 25,29 29,51l-36 5c-3,-15 -10,-26 -18,-33 -9,-7 -19,-11 -32,-11 -19,0 -34,7 -46,20 -12,13 -18,35 -18,64 0,30 6,51 17,64 11,13 26,20 44,20 15,0 27,-4 37,-13 10,-9 16,-23 19,-41z"/>
   <path id="13" class="fil1" d="M3447 3288c0,-41 11,-71 34,-90 19,-16 42,-24 69,-24 30,0 55,10 74,30 19,20 29,47 29,82 0,28 -4,50 -13,67 -8,16 -21,29 -37,38 -16,9 -34,13 -53,13 -31,0 -56,-10 -75,-30 -19,-20 -28,-48 -28,-85zm38 0c0,28 6,49 18,63 12,14 28,21 47,21 19,0 34,-7 46,-21 12,-14 18,-35 18,-64 0,-27 -6,-48 -19,-62 -12,-14 -28,-21 -46,-21 -19,0 -34,7 -47,21 -12,14 -18,35 -18,63z"/>
   <polygon id="14" class="fil1" points="3707,3398 3707,3356 3750,3356 3750,3398 "/>
   <path id="15" class="fil1" d="M3958 3318l36 5c-4,25 -14,45 -31,59 -16,14 -37,21 -61,21 -30,0 -54,-10 -72,-29 -18,-20 -27,-48 -27,-84 0,-24 4,-44 12,-62 8,-18 20,-31 36,-40 16,-9 33,-13 52,-13 24,0 43,6 58,18 15,12 25,29 29,51l-36 5c-3,-15 -10,-26 -18,-33 -9,-7 -19,-11 -32,-11 -19,0 -34,7 -46,20 -12,13 -18,35 -18,64 0,30 6,51 17,64 11,13 26,20 44,20 15,0 27,-4 37,-13 10,-9 16,-23 19,-41z"/>
   <path id="16" class="fil1" d="M4012 3288c0,-41 11,-71 34,-90 19,-16 42,-24 69,-24 30,0 55,10 74,30 19,20 29,47 29,82 0,28 -4,50 -13,67 -8,16 -21,29 -37,38 -16,9 -34,13 -53,13 -31,0 -56,-10 -75,-30 -19,-20 -28,-48 -28,-85zm38 0c0,28 6,49 18,63 12,14 28,21 47,21 19,0 34,-7 46,-21 12,-14 18,-35 18,-64 0,-27 -6,-48 -19,-62 -12,-14 -28,-21 -46,-21 -19,0 -34,7 -47,21 -12,14 -18,35 -18,63z"/>
   <path id="17" class="fil1" d="M4262 3398l0 -220 33 0 0 31c7,-11 16,-19 27,-26 11,-7 24,-10 39,-10 16,0 30,3 40,10 10,7 18,16 22,28 18,-26 40,-38 68,-38 22,0 39,6 50,18 12,12 18,31 18,56l0 151 -37 0 0 -138c0,-15 -1,-26 -4,-32 -2,-7 -7,-12 -13,-16 -6,-4 -14,-6 -22,-6 -16,0 -28,5 -39,15 -10,10 -15,27 -15,49l0 128 -37 0 0 -143c0,-17 -3,-29 -9,-37 -6,-8 -16,-12 -30,-12 -10,0 -20,3 -29,8 -9,6 -15,14 -19,24 -4,11 -6,26 -6,46l0 114 -37 0z"/>
   <polygon id="18" class="fil1" points="4625,3398 4625,3356 4668,3356 4668,3398 "/>
   <path id="19" class="fil1" d="M4732 3398l0 -220 33 0 0 31c7,-11 16,-19 27,-26 11,-7 24,-10 39,-10 16,0 30,3 40,10 10,7 18,16 22,28 18,-26 40,-38 68,-38 22,0 39,6 50,18 12,12 18,31 18,56l0 151 -37 0 0 -138c0,-15 -1,-26 -4,-32 -2,-7 -7,-12 -13,-16 -6,-4 -14,-6 -22,-6 -16,0 -28,5 -39,15 -10,10 -15,27 -15,49l0 128 -37 0 0 -143c0,-17 -3,-29 -9,-37 -6,-8 -16,-12 -30,-12 -10,0 -20,3 -29,8 -9,6 -15,14 -19,24 -4,11 -6,26 -6,46l0 114 -37 0z"/>
   <path id="20" class="fil1" d="M5060 3398l80 -114 -74 -106 46 0 35 52c6,10 12,18 15,24 6,-9 12,-17 17,-24l37 -52 46 0 -75 106 80 114 -45 0 -45 -68 -10 -16 -59 84 -46 0z"/>
  </g>
 </g>
</svg>
