<svg width="73" height="24" viewBox="0 0 73 24" xmlns="http://www.w3.org/2000/svg"><title>spei-gray</title><path d="M0 15.924l6.82-.427c.147 1.108.45 1.949.903 2.532.738.939 1.792 1.406 3.161 1.406 1.023 0 1.81-.24 2.366-.72.551-.477.827-1.038.827-1.67 0-.6-.263-1.138-.787-1.615-.53-.471-1.752-.92-3.673-1.343-3.139-.708-5.384-1.647-6.723-2.817C1.543 10.1.871 8.605.871 6.79c0-1.193.343-2.318 1.032-3.377.693-1.06 1.73-1.896 3.117-2.5C6.41.306 8.31 0 10.724 0c2.966 0 5.225.552 6.78 1.655 1.553 1.104 2.477 2.857 2.775 5.264l-6.754.396c-.177-1.046-.555-1.807-1.129-2.278-.578-.476-1.37-.717-2.383-.717-.832 0-1.459.178-1.88.534-.423.352-.632.783-.632 1.286 0 .374.173.703.52 1.001.338.303 1.138.588 2.405.855 3.13.671 5.376 1.356 6.728 2.046 1.356.694 2.343 1.549 2.956 2.572.618 1.023.925 2.171.925 3.435 0 1.486-.409 2.86-1.232 4.116-.822 1.254-1.97 2.207-3.445 2.856-1.476.65-3.34.979-5.585.979-3.944 0-6.678-.765-8.194-2.287C1.059 20.196.199 18.265 0 15.924zM33.93.396c2.591 0 4.534.618 5.824 1.851 1.294 1.237 1.938 2.994 1.938 5.272 0 2.34-.702 4.174-2.112 5.49-1.405 1.322-3.552 1.981-6.442 1.981h-3.922v8.614h-7.198V.396h11.911zm-4.714 9.89h1.756c1.379 0 2.348-.24 2.908-.715.56-.48.84-1.095.84-1.847 0-.725-.244-1.344-.729-1.85-.484-.508-1.396-.762-2.734-.762h-2.04v5.175zM42.831.397h19.203v4.957H50.011v3.684h11.147v4.734H50.011v4.574h12.37v5.259H42.83V.396zM68 19.092l4.26-6.398v10.91h-7.18v-9.829H68v5.317zm0-15.381v5.321h-2.92V.396h7.18v9.713L68 3.711z" fill="#7C869A" fill-rule="evenodd"/></svg>